/* XPM */
static char *a23f1f66dd7940a5cc487665b59ec86dYPPuyVdM8HYwCcB6[] = {
/* columns rows colors chars-per-pixel */
"64 64 16 1 ",
"  c #232825",
". c #2B3635",
"X c #323C39",
"o c #497127",
"O c #3D5152",
"+ c #494744",
"@ c #596062",
"# c #696A6A",
"$ c #599938",
"% c #69943D",
"& c #83AE47",
"* c #80BA58",
"= c #9ECB66",
"- c #A0C26E",
"; c #809098",
": c #B4D89E",
/* pixels */
"#XX#++##++++++#XX###++#####XX+++++###--++#X-+++#######+++##XX###",
"##X+++++++++++    #++++#++#XX  +++++#+&+++X++++++####++++ XX####",
"### +++++++++  +   ++++++++X##  ++++++&+++% ++++++++++++ oXXX###",
"XX#  ++++++ O...  +  ++++++ ###   &++++&& X o ++++++++&  +-#X%XX",
"#XXX  ++ ..O;;@@@@.+  ++++  XXXO..$..    %XX   +++++++oo #-#XX##",
"###XXXX ..;;;;;;;@@.+  +&  ##XO;;O$..@@+X%###X+  ......O##-XXX##",
"####XX#O;;;;;;;;;;@.@+  o ##XO;;;;;;OO;*%-##X%#;@....O*OO-XX####",
"#####X#O;;;;;;;;;;@@.@-XXXXXO;;;;;;:;;OO;---%;OO*;;;;;;**OXX-###",
"#####XO;;;;;#####@@@@.XX##XX@@;;;##;;;:OO##XO:;;;;;;;;;;;O*X&+##",
"#####XO;;;;#####+++@@ ####X @@@;####+@@*OXXO;;;;;;;;::;;;;*$&++#",
"#####X#;;;#####++++++ ####X +@@+###++&@=%#-O;;;;;;;;;;;;;:;$&&+#",
"##+++ +&&###&++++++++XX%XXXo ++++#++&++ %XXX;;;#####;;;;;;:.&++&",
"+++++ +&++++&&&+++++ XXXXXX  ++++++++++ X##%#########;;::@@ +++&",
"+++&+ ++++++++++++&+X%X-###   ++++++++ X###X##########;;+&+  &++",
"+++   &++++++++++++XXX####-#+ &++++++ X###XX############+&&    +",
"++  X+&+++&+++++++XX%X#++##++   +      +++  X++#######-+&+  -   ",
"   #X +++&+++&+.OO###X&++++++ X            + +++######-+++  X#-X",
"X###   +&&&++=.;*OO;#X++++++++ ++++++@@.    + +++######++o %####",
"  -X + oo&& $.;;*;OO;-  +++++ +++++ ..@@@@@+  +++++##+++& +#####",
"++ X++++ %%:;:O*;::;OO-o &+   +++ .;;;;;;;;;X  ++&++&++& o+&+##-",
"++ X-&+&+XX;:OO;;;;:;*OX+   +&+  O;;;;;;;;;;;X  ++&&&+   &+&&&##",
"++  +&++++X;*;;++-;;;;;O++&&++  ;;;;;;;;;;;;;#X  ++&  o+oo&+++##",
"++ +++++&+X#O;++++#;;;:;$&+&+&o:;;;;;;####;;##X#%  oo+&-&o+++&++",
"++ ++++++ X+ X+++&&+;;;;$ ++++X;;;;;-#######++X####&+&+o%o  ++++",
"+  ++++&+ +++ ++++++&:;;#  ++& &@;-########++& X#+++++  %%  o&++",
"+  +++++ +++++o+++++++####o + o++&+##--####++++o+&+&   #::#X o +",
"XXX       X  ++ &++++++##-#   o+++++&++-##+++++ ++&o +:;:;;-X   ",
"##XXXX ..;;@. ++ +&+++++++& ++oo+&++++++++++&++ ++ o;;:;::;-##%X",
"#X#XX#O;;;;;@. ++  +++++&++  o +&+&++&+&+++++++ +oX:::::;:;-++ #",
"XX##XX;;;;;;;@  ++   ++++++ #-#X &+&++++++++&++X#X:::;::;;#+++  ",
"X####X@@@@@@@++  &@@.o &&+ X##--%%o&+++++++++++  ;;;;;;##-#++++ ",
"X#### +@@++++++.....OOOXXX o+##--&o +&+&+++++  + =;:::######+++ ",
"X####  ++++++ ..O;;;;;;;;  +&&-#&+&oo**OOOXX  ++ @;:;#######+++ ",
"X####+    o   .O;;;;;;;;;@$.+&&-&& .@;:OOOOX++++ +@;#-##-###+++ ",
"X###++   +++ +#;;;;;;;;;;;@..+&++ .@=;;;;OOO  ++ +++-#-#####+++ ",
"XXX&o o.@. o ++######;;;;;:=$ +++o@@:;;::;;O#  + +++++##-#+++&+ ",
"XX o .@@==. o++&########;;;;@$o&o &::;#-;;;###  + ++++&+&+++++  ",
"#X  .@@@;;;   ++#-#######;;;:@= o&-##-########+    +++++++++++ X",
"##% @@;:;:#-  +++#########;;:;;;X%--#--#######++ +  ++++&+++.$%X",
"-#X%;;;;:#-++  +++#########::;:;XX &-##-#######+  +   o    .O;OX",
"-#XX-;;-#&&+++  +++-#######--;:#%  +&--#######+++ ++ XO;XXX;;OO#",
"#XXX++++++++++  +++&+#-########## o++#########++++ +X;::;#XO;O;#",
"#X# ++++++    X o++++&&#####-#+&+ o++&-########+++ XX;;;;##OOO;;",
"#XX  ++    + O*O. &++++++####++&++  +&++#######++++X##;;###;OO;;",
"###X    ++ OO;;;*.. &+++++++++++&+   +++++++++++++ X#++#####@.O#",
"+++#XXXXXX;;:;;;;;*$o++++++++++&  o   +&++++++++++  ++++##+++  #",
"+++&#XX##;;;;:;;;;;:o  ++++++    ++++   +++++++++  + ++++++++ +#",
"+++++Xo++;;:;;;;;;;++o  ......   ++++++    +++++  ++  ++++++   #",
" +   + +++;;;#####+&++ ...$.@@.  +++++  ++     XXX oXo ++++  &XX",
"    ++ &+++++###++&+++ .@@@@@@@@  ++++    ..+++XXX##XX  +  .OOO#",
"+++  +  +&++&+++++++++ +@@@@@@@@+  ++ ..@@@.. XX####XXXXX%O;;;OO",
"###+  +   +&&&+++&++&%X+++++@@@++o   .;@@@;;*%X++####Xo+#O;::;;;",
"##### +++  o +++++++    +&&&&++++++o+@@;;;:;O# +++&##+oo.O;;;::#",
"#####OO.. &++        &+ +++++++++ o ++@@;;;@@ o++++&+++ .;:;;--&",
"####OO:;@..++++&   ++++o +++&+&+  &  ++@@@@=+o ++&+++++ .$@@++&+",
"-##XOO;;;@.$++ o &    XX    o+  ++++o++&+&+++o+o &&++++ +.=++&&+",
"##%X @;;;@@. +..OO#-#XXX##XXX  &+ o X +++++++ +&   &&ooo& o++++&",
"XXX +++=@@=@ *O;;;*#XXXX###XX&  .@@;OO$.+&&oo +&&=...$=&+& o    ",
"%XX +++++=@ o;;;;;*XX##X#-#### .@:;:;OO.$   &&o.$.$.*=@@+ Xo o  ",
"###X +++++  ##;;;;@ o#######+&+O:::;;:;:;X  o&$;;@@:**.=& &&+&++",
"####Xo  +  ####-;@+o ++++-#+&+o.;;=@;:;;;XX&o$O::;::::Ooo &+&&&&",
"+-####XXXX##-#--&+   ++++++++  +@@+++&@=+ o+XO:;;:##-##XX&&&&+&+",
"&&++++o  ++++&&&+  +  ++++++oo  &&++++&+ o    @@=&#++++ o&+&&+++",
"+&+++++   +++++   &&+   +++  &&  &&+++++o+  +o ++++++++  ++&++++"
};