/* XPM */
static char *result[] = {
/* columns rows colors chars-per-pixel */
"64 64 118 2 ",
"   c #010101",
".  c #060709",
"X  c #07080B",
"o  c #0C0C0D",
"O  c #0C0D11",
"+  c #0F1013",
"@  c #0F1119",
"#  c #141414",
"$  c #141619",
"%  c #16191C",
"&  c #1C1C1C",
"*  c #151821",
"=  c #1B1D22",
"-  c #1E2124",
";  c #252525",
":  c #23252A",
">  c #26282C",
",  c #2D2E2E",
"<  c #2B2D32",
"1  c #2F3033",
"2  c #2E3238",
"3  c #343434",
"4  c #33353B",
"5  c #363A3D",
"6  c #39393A",
"7  c #343740",
"8  c #363840",
"9  c #3A3D43",
"0  c #3A3E48",
"q  c #3E4045",
"w  c #3A4148",
"e  c #434343",
"r  c #444844",
"t  c #44464A",
"y  c #45494E",
"u  c #4D4D4D",
"i  c #464951",
"p  c #4D4E53",
"a  c #4E5154",
"s  c #4E535A",
"d  c #535454",
"f  c #575A57",
"g  c #52555A",
"h  c #55585B",
"j  c #5A5A5A",
"k  c #565B62",
"l  c #5B5D63",
"z  c #5E6165",
"x  c #5F626A",
"c  c #646464",
"v  c #666965",
"b  c #64666A",
"n  c #66696C",
"m  c #6B6B6C",
"M  c #676D73",
"N  c #6C6E73",
"B  c #6E7075",
"V  c #6E757A",
"C  c #717171",
"Z  c #747579",
"A  c #76797B",
"S  c #7B7B7B",
"D  c #80857E",
"F  c #777A80",
"G  c #7A7D82",
"H  c #7E8183",
"J  c #7F878A",
"K  c #868686",
"L  c #858983",
"P  c #83858B",
"I  c #86898E",
"U  c #8B8C8C",
"Y  c #878A90",
"T  c #8B8E92",
"R  c #8D9092",
"E  c #929292",
"W  c #94969A",
"Q  c #97999E",
"!  c #9D9D9E",
"~  c #9B9EA1",
"^  c #9EA1A4",
"/  c #9EA7A9",
"(  c #A3A3A4",
")  c #A3A5A9",
"_  c #A4A9AB",
"`  c #AAAAAA",
"'  c #AFB1AB",
"]  c #AEAEB1",
"[  c #AEB1B4",
"{  c #AFB7BA",
"}  c #B3B4B4",
"|  c #B4B6B9",
" . c #B6B9BB",
".. c #BCBDBD",
"X. c #BFC1BE",
"o. c #BCBDC0",
"O. c #BEC1C2",
"+. c #C2C3C5",
"@. c #C6C7C9",
"#. c #C7C8CB",
"$. c #C9CACA",
"%. c #CECFD1",
"&. c #CCD2D3",
"*. c #D2D3D3",
"=. c #D5D6D8",
"-. c #D7D9DA",
";. c #DCDCDC",
":. c #DEDFE0",
">. c #DEE0E1",
",. c #E4E4E5",
"<. c #E7E7E8",
"1. c #E7EAEA",
"2. c #ECECEC",
"3. c #EFEFF0",
"4. c #EFF0F1",
"5. c #F3F4F4",
"6. c #F7F8F8",
"7. c #FDFDFD",
/* pixels */
"                                . .                                             . .                                             ",
"  . .     .   . .     .   . .   o o . . .     .   . .     .   . .     .   . .   o o . . .     .   . .   . .   . .     .   . .   ",
"o + o o o # o # o o o o o o o o o o o o o # o o o o o # # o o # o o o o o o o # o o # o o # o o o o o # o o o o o o o o o o o o ",
"# # # # # # # # # # & # # & # # # # & # # # # # # # # # # # # # # & # # # # # # # # # # # # # # # # # # & # # # # & # # # # # & ",
"& & & & & & & & & & & & & & & ; & & & & & & & & & & & & & & & & & & & & & & & & & & ; & & ; & & & & & & & & & & & & & & & & & & ",
"> ; ; ; ; ; ; ; ; ; ; ; ; ; ; ; ; ; , ; ; , ; ; ; , ; ; ; , ; ; , ; ; ; , ; ; ; ; ; ; ; ; ; ; ; ; , ; ; ; , ; ; ; ; ; ; ; , ; ; ",
"3 , , , 3 , , , , , , , , , , 3 , , , , , , , , , , , , , , , , , , , , , , 3 , , , , , , , , , , , , , , , , , 3 , , , , , 3 , ",
"6 6 6 6 6 6 6 6 , 6 6 6 6 6 6 6 6 6 6 6 6 6 6 6 6 6 6 6 6 6 6 6 6 6 6 6 6 6 6 6 6 6 6 6 6 6 3 6 6 6 6 6 6 6 6 , 6 6 6 6 6 6 6 6 ",
"e e e e e e e e 6 e e e e e e e e e e e e e e e e e e e e e e e e e e e e e e e e e e e e e e e e e e e e e e 6 e e e e e e e e ",
"u u u u u u u u 6 u u u u u u u u u u u u u u u u u u u u u u u u u u u u u u u u u u u u u u u u u u u u u u 6 u u u u u u u u ",
"j j j j j j j d e j j j j j j j j d j j j j j j j j j j j j j j j j j j j j j j j j j j j j j j j j j d j j j e f j j j j j j j ",
"c c c c c c c j j v c c c c c c c c c c c c c c c c c c c c c c c c c c c c c c c c c c c c c c c c c c c c c c j c c c c c c c ",
"C m C C C C C c v C v C C C C m C C C C C C m C C C C C C C C m C C C C C C C C C m C C C C C C C C C C C c C c v C C C m C C C ",
"S S S S S S S S c S c C S S S S S S S S S S C C S S S S S S S S S S S S S S S S C C S S S S S S S S S S C c S c S S S S S S S S ",
"U K D K K K K K m K u C K K K K K K K K K K K C D U D D K K K K D K K K D U D U C K K K K K K K K K K K C u K m K D K K K K D K ",
"E E E E E E E E Z m S E E E E E E E E E E E E K E E E E E E E E E E E E E E E E S E E E E E E E E E E E E S m S E E E E E E E E ",
"! ! ! ! ! ! ! ! ! q E ! ! ! ! ! ! ! ! ! ! ! ! S ! ! ! ! ! ! ! ! ! ! ! ! ! ! ! ! S ! ! ! ! ! ! ! ! ! ! ! ! E e ! ! ! ! ! ! ! ! ! ",
"` ` ` ` ` ` ` ` ` u ( ` ` ` ` ` ` ` ` ` ` ` ` S ( ` ` ` ` ` ` ` ` ` ` ` ` ` ` ( S ` ` ` ` ` ` ` ` ` ` ` ` ` u ` ` ` ` ` ` ` ` ` ",
"} } ` ' } } ` } } m } } } } } } } } } } } } } ` ! } } } } } } } } } } } } } } ! ` } } } } } } } } } } } } } m } } ` } } } ' } } ",
"X.X.X.' } ..` ....Z X.........X.......X...' ..} ' ..........X.X...X.....X.X.X.` } ..' ....X.........X.......C ....` ..} ' ......",
"$.@.@.` ..$.' $.! R $.@.$.@.$.$.@.@.$.@.X.! $.( X.$.$.$.$.$.$.$.$.$.$.$.@.@.$.X.! @.! X.$.@.$.$.$.$.$.$.+.$.E ! $.] $.} ` $.$.$.",
"*.*.*.] } *.` +.v $.*.*.*.*.*.*.*.*.*.*.} C %.` *.*.*.*.%.*.*.*.*.*.*.%.*.*.*.*.` *.Z ] *.*.*.*.*.*.*.*.*.*.$.c +.' *...] *.*.$.",
";.;.;.-.} %.U c ..;.;.;.;.;.;.;.;.;.;.;.;. .( } ;.;.;.;.;.;.;.;.;.;.;.;.;.;.;.;.} (  .;.;.;.;.;.;.;.;.;.;.;.;...c K *.} ;.;.;.;.",
",.,.<.<.o.%.C *.,.,.,.,.,.,.,.,.,.,.<.,.,.%.x :.,.,.,.,.,.,.,.,.,.,.,.,.<.,.,.,.:.z *.,.,.,.,.,.,.,.,.,.,.,.,.,.*.C $...,.,.,.,.",
"2.2.2.2.o.-.G 2.2.2.2.2.2.3.2.3.2.2.2.2.2.<.N 2.3.2.3.2.2.1.3.2.2.2.2.2.2.3.2.2.2.N <.2.2.2.3.3.3.2.3.2.3.2.3.2.2.G =.o.2.2.3.2.",
"5.5.5.5.o.| P 3.5.5.5.5.5.5.5.5.5.5.5.5.5.5.T 5.5.1.5.5.5.1.5.5.5.5.2.3.3.5.2.5.5.Y 5.5.5.5.5.5.5.5.5.5.5.5.5.5.3.P o.o.3.5.5.5.",
"6.6.6.:.,.[ P 7.6.7.7.7.7.6.6.7.5.7.7.6.6.1.~ 6.7.:.7.4.<.6.6.7.6.6.6.,.3.7.:.7.6.~ 2.6.7.6.7.6.6.7.7.6.7.6.7.6.6.P } ,.,.6.6.6.",
"7.6.6.+.7.[ T 7.7.7.7.7.7.7.7.7.7.7.7.7.<.7.} &.7.;.7.2.-.7.7.7.7.7.7.-.<.7.;.7.%.[ 7.1.7.7.7.7.7.7.7.7.7.7.7.7.6.T } 6.@.6.6.6.",
"7.<.@.3.7.~ o.7.7.7.7.7.7.7.7.6.7.5.7.1.5.7.5.G 4.%.7.>.*.7.7.7.7.7.7.%.:.7.*.4.G 5.7.5.1.7.5.7.6.7.7.7.7.7.7.7.7.o.~ 7.3.@.<.7.",
"7.+.$.7.3.x 6.3.7.7.7.7.7.7.7.1.6.4.5.>.7.7.7.*.B ) 5.%.5.7.7.7.7.7.7.7.*.4.) B &.7.7.7.>.5.4.6.<.7.7.7.7.7.7.7.3.6.l 2.7.#.+.7.",
"5.R 7.7.~ ] :.3.4.7.7.7.7.7.7.1.=.6.%.7.7.6.7.6.<.G <.=.-.6.7.7.7.7.7.7.=.,.G 1.7.7.6.7.7.&.6.=.<.6.7.7.7.7.7.3.3.>.] ~ 7.7.W 5.",
"~ @.7.,.l 6.#.>.7.7.7.7.7.7.5.$.%.o.5.7.5.5.4.6.7.P 2.#.*.;.7.7.7.7.7.7.%.2.P 7.6.4.5.5.7.5.o.*.$.6.7.7.7.7.7.7.>.@.6.x ,.7.@.~ ",
"1.:.6.b :.%.%.1.7.7.7.7.7.7.6.G O.$.7.7.;.6.<.7.7.Y | | $.*.7.7.7.7.7.7.#.o.I 7.7.<.6.;.7.7.$.O.G 7.7.7.7.7.7.7.1.%.%.:.b 6.-.3.",
"7.@.~ _ 6.| #.7.7.7.4.7.7.7.=.J / 7.7.&.2.;.7.7.7.Y U $.( ;.2.7.7.7.7.<.<.| Y 7.7.7.;.2.&.7.7./ R 7.7.-.7.3.7.7.7.#.| 5._ ^ +.7.",
"7.O.s <.=.V 6.7.7.7.7.1.7.7.O.k %.7.+.X.*.7.7.7.7.Y ! @.K =.5.=.6.5.7.+.7.} T 7.7.7.6.X.X.O.7.4.G &.6...1.7.7.>.7.,.M =.1.s O.7.",
"7.| N >.~ *.7.7.6.2.7.4.2.7.~ c  .[ { 1.7.7.7.7.6.) Q ;...@.@.-.7.,. .,.7.Q  .7.7.7.6.5.-.[ { 5.,._ 5.` ,.7.1.&.1.2.} Q ,.B | 7.",
"7.k ) o.) 7.7.7.7.&.5.7.:./ / ! y +.7.7.7.7.7.7.*.-.l 4.-.| ] $.7.@.P $. .g ,.4.7.6.5.;.*.1.*.I ,.[ ) ~ @.1.X.1.,.%.5.^ o.) k 7.",
" .7 3.P -.7.7.7.7.{ <.7.#.M ~ k H 7.7.7.7.7.7.5.$.$._ W *.,.C :.2.K W } p Z ^ 3.5.$.-.;.! 1.1.( k =.J P | <.^ } T ;.6.-.P 3.7  .",
"0 T 1.~ 7.7.7.7.6. .O.=.x b i H W 5.7.7.7.7.7.7.+.] 6.g } |  .B Z K S ! < n G *.5.U :.} S ,.( T _ k F s } | / ..E X.7.7.~ ,.T 0 ",
"k 3.F <.6.7.6.6.6.Y ..0 p Z R ! d 1.>.;.5.7.6.=. .T +.=.p } ` E H K c t 9 b S ,. .E ` ' A +.` b W ~ ] s w ) I ) K o.:.6.3.F 3.l ",
"| R E <.,.:.,.;.3.Q j o.~ ! +.B b *.[ _ >.4.5.} ;.K R *.G Z Z ] m j B t e m b =.m U W c Z ( L G l } X./ W b Z ! Z ' | ,.*.%.W *.",
"l ) ( ` H $.| $.*.k $.' _ A %.! s W R K X.<.2.' $.! d ` ! 9 m ! m t 4 z > 1 j K K j c c v T N n E ` H H ` ( t K S ] @.Q :.2...T ",
"R  .E S H P ( ( j @.,.} +.V z *.( m L L $.>...! ! Z N N U g u c c l < l ; u u S E e v c e D s K E c K E ( ' ] q c ` E S @.:.;.] ",
"%.! Z u m U c u A ! ..} ` j k a n c B L } $.` B ! v W m b N < l u 8 6 a > e e c j e j c 9 l e j y a ( ] ! } E K 4 m E P Z %.+.%.",
"K K j z c 9 : t p d g 0 5 > w c f j 9 d ` ` A v E S m S i v * y t % a 5 > , . u c 6 j j 9 a e 6 y w < 9 e g t p 0 : q U E ! U } ",
"C H u S - 9 c p a C U R d c C u y 1 w ; E S b j K K u C p u > : = - u 6 ; 3 , u d y l e < 3 > c j K v j m l d d u e 9 < Z m U U ",
"Z j , > t m C T e v C } v j a 6 e 6 1 = - a 4 6 v m 6 j a ; 6 % - t 1 u ; 6 3 6 t 1 j * - 1 u j j S v l c m K c e d Z C ; l C K ",
"Z > $ 3 e z c e 6 d f U f 5 j , 6 u 6 5 g 1 , 3 u d , d 9 ; 3 ; 4 1 d j ; 6 , e , ; - , 9 6 3 e j z y 6 u j j u t j e m a = , C ",
"9 @ > , e u e u e , u d j 3 e & & e ; 6 u 6 % ; # ; ; 6 , & , % , ; d e & ; - & - $ 6 6 3 ; , u u j d r 6 , r ; ; 6 , f v u @ 1 ",
"; $ ; & 6 e 3 6 3 , ; 3 6 6 3 o & & & ; 3 3 % + X & & , ; & 3 & : & 6 ; % & ; ; + & e , ; & & , 6 e e 6 ; ; , ; ; ; & e 6 u : = ",
"; 6 ; , 3 6 , u 3 6 ; , , # 6 & & & , ; 3 , # & O % ; ; & # & ; , & 3 - % & + $ . & 3 & & . + & ; 6 6 3 ; ; 6 3 & & & , 3 e 6 $ ",
", , & $ & 3 & 3 , , & ; # o , ; ; & & # ; % # $ $ + + $ ; # & # ; # % , # X O $ O # = & % # % , ; 6 > , ; & , # ; # ; 3 > ; > & ",
"O O # o $ ; $ 3 & 6 o ; o o ; o # o & o & # . o O & o # ; # % + ; o # , o o o # O o o # & # X ; o & & & + # ; # + # & & + # O O ",
"$ & & # , $ # , & 3 o , # . ; o o o # # # o   . o ; # & O o # o % X o # o # o o +   o O # # + # . o   o . o # . o o o # . # o o ",
"; ; # # & # # & # ; o , o o . . . . # o o .   . . & + ; # X X . # X o = o # o o .     . .     .           o o .       . . # X # ",
"- $ # o # o o & # # o & o o #   . o . # . . .   . # + ; o X X . . X o ;   o . . o                                       . o o o ",
"# . o . o o o # o # . o o . o   . .   o . . .     o X >     . .   . . #   o                                                 . X ",
"o . .   . .   . . . o .     . .     .             . X o                   .                                                     ",
".   . .   .   . . .       . .                       X                     X                                                     ",
"      .     .                                                                                                                   ",
"                                                                                                                                ",
"                                                                                                                                ",
"                                                                                                                                ",
"                                                                                                                                "
};
