/* XPM */
static char *result[] = {
/* columns rows colors chars-per-pixel */
"64 64 102 2 ",
"   c #010101",
".  c #070708",
"X  c #0B0B0B",
"o  c #0E0F11",
"O  c #0F1114",
"+  c #131414",
"@  c #131518",
"#  c #1B1B1C",
"$  c #1C1E21",
"%  c #1F2123",
"&  c #232323",
"*  c #282827",
"=  c #232529",
"-  c #27292A",
";  c #2C2C2C",
":  c #2D2E32",
">  c #2F3130",
",  c #2E3139",
"<  c #333333",
"1  c #393936",
"2  c #34363A",
"3  c #37393D",
"4  c #3B3B3B",
"5  c #3F423F",
"6  c #41413E",
"7  c #3C3D41",
"8  c #3E4047",
"9  c #444444",
"0  c #434549",
"q  c #47494F",
"w  c #4B4C4B",
"e  c #4D4E52",
"r  c #4F5052",
"t  c #4E515A",
"y  c #535353",
"u  c #53555B",
"i  c #575A5B",
"p  c #5B5B5B",
"a  c #575E63",
"s  c #5B5D64",
"d  c #5F6165",
"f  c #5F626A",
"g  c #646464",
"h  c #62656B",
"j  c #6C6C6C",
"k  c #666971",
"l  c #6A6D73",
"z  c #6E7075",
"x  c #6F747B",
"c  c #737373",
"v  c #787877",
"b  c #72757A",
"n  c #76787F",
"m  c #7B7C7C",
"M  c #777A81",
"N  c #7B7E83",
"B  c #838383",
"V  c #83868B",
"C  c #86898D",
"Z  c #8C8C8C",
"A  c #878A90",
"S  c #8D8E92",
"D  c #939393",
"F  c #94959A",
"G  c #97999C",
"H  c #9B9B9C",
"J  c #979DA0",
"K  c #9D9FA2",
"L  c #9EA2A6",
"P  c #A4A4A5",
"I  c #A5A6AB",
"U  c #A4ACAE",
"Y  c #ACACAC",
"T  c #ABADB1",
"R  c #ACB2B3",
"E  c #B4B5B5",
"W  c #B3B5B8",
"Q  c #BABBBC",
"!  c #BFC2BC",
"~  c #BBBDC0",
"^  c #BEC2C4",
"/  c #C3C4C5",
"(  c #C5C6C9",
")  c #C7C9CB",
"_  c #CACBCC",
"`  c #CDCED1",
"'  c #CDD1D3",
"]  c #D3D3D4",
"[  c #D5D6D8",
"{  c #D7D9DB",
"}  c #DADBDB",
"|  c #DFDFE1",
" . c #DEE0E1",
".. c #E3E4E4",
"X. c #E6E7E8",
"o. c #E6E9E9",
"O. c #EBEBEB",
"+. c #EFEFF0",
"@. c #EFF0F0",
"#. c #F3F4F4",
"$. c #F7F8F8",
"%. c #FFFFFF",
/* pixels */
"%.%.%.%.%.%.%.%.%.%.%.%.%.%.%.%.%.%.%.%.%.%.%.%.%.%.%.%.%.%.%.%.%.%.%.%.%.%.%.%.%.%.%.%.%.%.%.%.%.%.%.%.%.%.%.%.%.%.%.%.%.%.%.%.",
"%.%.%.%.%.%.%.%.%.%.%.%.%.%.%.%.%.%.%.%.%.%.%.%.%.%.%.%.%.%.%.%.%.%.%.%.%.%.%.%.%.%.%.%.%.%.%.%.%.%.%.%.%.%.%.%.%.%.%.%.%.%.%.%.",
"%.%.%.%.%.%.%.%.%.%.%.%.%.%.%.%.%.%.%.%.%.%.%.%.%.%.%.%.%.%.%.%.%.%.%.%.%.%.%.%.%.%.%.%.%.%.%.%.%.%.%.%.%.%.%.%.%.%.%.%.%.%.%.%.",
"%.%.%.%.%.%.%.%.%.%.%.%.%.%.%.%.%.%.%.%.%.%.%.%.%.%.%.%.%.%.%.%.%.%.%.%.%.%.%.%.%.%.%.%.%.%.%.%.%.%.%.%.%.%.%.%.%.%.%.%.%.%.%.%.",
"%.%.%.%.%.%.%.%.%.%.%.%.%.%.%.%.%.%.%.%.%.%.%.%.%.%.%.%.%.%.%.%.%.%.%.%.%.%.%.%.%.%.%.%.%.%.%.%.%.%.%.%.%.%.%.%.%.%.%.%.%.%.%.%.",
"%.%.%.%.%.%.%.%.%.#.%.%.%.%.%.%.%.%.%.%.%.%.%.%.%.%.%.%.%.%.%.%.%.%.%.%.%.%.%.%.%.%.%.%.%.%.%.%.%.%.%.%.%.%.#.%.%.%.%.%.%.%.%.%.",
"%.%.%.%.%.%.%.%.O.#.%.%.%.%.%.%.%.%.%.%.%.%.%.%.%.%.%.%.%.%.%.%.%.%.%.%.%.%.%.%.%.%.%.%.%.%.%.%.%.%.%.%.%.%.#.O.%.%.%.%.%.%.%.%.",
"%.%.%.%.%.%.%.%.] %.%.%.%.%.%.%.%.%.%.%.%.%.%.%.%.%.%.%.%.%.%.%.%.%.%.%.%.%.%.%.%.%.%.%.%.%.%.%.%.%.%.%.%.%.%.] %.%.%.%.%.%.%.%.",
"%.%.%.%.%.%.%.%.{ %.%.%.%.%.%.%.%.%.%.%.%.%.%.%.%.%.%.%.%.%.%.%.%.%.%.%.%.%.%.%.%.%.%.%.%.%.%.%.%.%.%.%.%.%.%.} %.%.%.%.%.%.%.%.",
"%.%.%.%.%.%.%.%.^ %.%.%.%.%.%.%.%.%.%.%.%.%.%.%.%.%.%.%.%.%.%.%.%.%.%.%.%.%.%.%.%.%.%.%.%.%.%.%.%.%.%.%.%.%.%.~ %.%.%.%.%.%.%.%.",
"%.%.%.%.%.%.%.#.~ %.%.%.%.%.%.%.%.%.%.%.%.%.%.%.%.%.%.%.%.%.%.%.%.%.%.%.%.%.%.%.%.%.%.%.%.%.%.%.%.%.%.%.%.%.%.~ #.%.%.%.%.%.%.%.",
"%.%.%.%.%.%.%...+.%.%.%.%.%.%.%.%.%.%.%.%.%.%.%.%.%.%.%.%.%.%.%.%.%.%.%.%.%.%.%.%.%.%.%.%.%.%.%.%.%.%.%.%.%.%.+...%.%.%.%.%.%.%.",
"%.%.%.%.%.%.%.o.+.%.O.%.%.%.%.%.%.%.%.%.%.%.%.%.%.%.%.%.%.%.%.%.%.%.%.%.%.%.%.%.%.%.%.%.%.%.%.%.%.%.%.%.%.O.%.#.o.%.%.%.%.%.%.%.",
"%.%.%.%.%.%.%.$.) %.) #.%.%.%.%.%.%.%.%.%.%.%.%.%.%.%.%.%.%.%.%.%.%.%.%.%.%.%.%.%.%.%.%.%.%.%.%.%.%.%.%.#.) %.) $.%.%.%.%.%.%.%.",
"%.%.%.%.%.%.%.%.] $.V } %.%.%.%.%.%.%.%.%.%.%.%.%.%.%.%.%.%.%.%.%.%.%.%.%.%.%.%.%.%.%.%.%.%.%.%.%.%.%.%.} V $.' %.%.%.%.%.%.%.%.",
"%.%.%.%.%.%.%.%.` ~ { %.%.%.%.%.%.%.%.%.%.%.%.%.%.%.%.%.%.%.%.%.%.%.%.%.%.%.%.%.%.%.%.%.%.%.%.%.%.%.%.%.%.} Q ` %.%.%.%.%.%.%.%.",
"%.%.%.%.%.%.%.%.$.k O.%.%.%.%.%.%.%.%.%.%.%.%.%.%.%.%.%.%.%.%.%.%.%.%.%.%.%.%.%.%.%.%.%.%.%.%.%.%.%.%.%.%.O.k $.%.%.%.%.%.%.%.%.",
"%.%.%.%.%.%.%.%.%.n $.%.%.%.%.%.%.%.%.%.%.%.%.%.%.%.%.%.%.%.%.%.%.%.%.%.%.%.%.%.%.%.%.%.%.%.%.%.%.%.%.%.%.$.n %.%.%.%.%.%.%.%.%.",
"%.%.#.$.%.%.#.%.%.F %.%.%.%.%.%.%.%.%.%.%.%.%.%.%.%.%.%.%.%.%.%.%.%.%.%.%.%.%.%.%.%.%.%.%.%.%.%.%.%.%.%.%.%.F %.%.#.%.%.$.#.%.%.",
"%.%.%.O.#.%...%.%.K %.%.%.%.%.%.%.%.%.%.%.%.%.%.%.%.%.%.%.%.%.%.%.%.%.%.%.%.%.%.%.%.%.%.%.%.%.%.%.%.%.%.%.%.K %.%...%.#.O.%.%.%.",
"%.%.%.[ O.%.} %.) W %.%.%.%.%.%.%.%.%.%.%.%.%.%.%.%.%.%.%.%.%.%.%.%.%.%.%.%.%.%.%.%.%.%.%.%.%.%.%.%.%.%.%.%.W ) %.| %.O.[ %.%.%.",
"%.%.%.] | %.] O.N #.%.%.%.%.%.%.%.%.%.%.%.%.%.%.%.%.%.%.%.%.%.%.%.%.%.%.%.%.%.%.%.%.%.%.%.%.%.%.%.%.%.%.%.%.#.N O.' %.| ] %.%.%.",
"%.%.%.%.] +.K x { %.%.%.%.%.%.%.%.%.%.%.%.%.%.%.%.%.%.%.%.%.%.%.%.%.%.%.%.%.%.%.%.%.%.%.%.%.%.%.%.%.%.%.%.%.%.{ z K O.] %.%.%.%.",
"%.%.%.%.] ..N O.%.%.%.%.%.%.%.%.%.%.%.%.%.%.%.%.%.%.%.%.%.%.%.%.%.%.%.%.%.%.%.%.%.%.%.%.%.%.%.%.%.%.%.%.%.%.%.%.+.N ..[ %.%.%.%.",
"%.%.%.%.) O.V %.%.%.%.%.%.%.%.%.%.%.%.%.%.%.%.%.%.%.%.%.%.%.%.%.%.%.%.%.%.%.%.%.%.%.%.%.%.%.%.%.%.%.%.%.%.%.%.%.%.V o.) %.%.%.%.",
"%.%.%.%.( ~ A %.%.%.%.%.%.%.%.%.%.%.%.%.%.%.%.%.%.%.%.%.%.%.%.%.%.%.%.%.%.%.%.%.%.%.%.%.%.%.%.%.%.%.%.%.%.%.%.%.$.A ~ ( %.%.%.%.",
"%.%.%...X.W A %.%.%.%.%.%.%.%.%.%.%.%.%.%.+.%.%.%.%.%.%.%.%.%.%.%.%.%.%.%.%.%.%.%.%.@.%.%.%.%.%.%.%.%.%.%.%.%.%.%.A W X...%.%.%.",
"%.#.%.( %.W S %.%.%.%.%.%.%.%.%.%.%.%.%.o.%.%.%.%.%.%.%.%.%.%.%.%.%.%.%.%.%.%.%.%.%.%.o.%.%.%.%.%.%.%.%.%.%.%.%.%.S W %.( %.#.%.",
"%.O.) +.%.G ~ %.%.%.%.%.%.%.%.$.%.#.%.o.@.%.%.%.%.%.%.%.%.%.%.%.%.%.%.%.%.%.%.%.%.%.%.@.o.%.#.%.$.%.%.%.%.%.%.%.%.~ G %.+.) O.%.",
"%./ ) %.+.h $.+.%.%.%.%.%.%.%.o.$.@.#. .%.%.%.%.%.%.%.%.$.%.%.%.%.%.%.%.%.%.%.%.%.%.%.%. .#.@.$.o.%.%.%.%.%.%.%.+.$.h +.%.) / %.",
"#.F %.%.F T  .+.+.%.%.%.%.%.$.X.[ $.' %.%.$.%.$.%.%.%.%.] #.%.%.%.%.%.%.%.%.%.%.%.%.$.%.%.' $.[ o.$.%.%.%.%.%.+.+.| T J %.%.F #.",
"F ) %...h $.)  .$.%.%.%.%.%.#.` ' Q #.%.#.@.@.$.%.%.%.$.] ..%.%.%.%.%.%.%.%.%.%.$.@.@.#.%.@.~ ] _ #.%.%.%.%.%.%.| ) $.f ..%.) F ",
"O.{ $.h } ` _ X.%.%.%.%.%.%.$.M ^ ) %.%.} #...%.%.%.#..._ ] %.%.%.%.%.%.%.%.%.%.%...$.} %.%._ ^ N %.%.%.%.%.%.%.X._ ` } h $.} O.",
"%./ L I $.E _ %.%.%.%.%.%.%.[ V L %.%.] O.} %.%.%.%.] | E } O.%.%.%.%.%.%.%.%.%.%.%.} O.' %.%.L S $.%.[ %.%.%.%.%._ W #.I L / %.",
"%.^ t X.[ x %.%.%.%.%.%.%.%.~ a ` %.! ! ] $.%.%.%.@.O./ P [ $.] #.%.%.%.%.%.%.%.$.%.$.! ! ^ %.#.N ' $.Q %.%.%...%.| l [ X.t ^ %.",
"$.W l | G _ $.$.#.X.#.$.$.#.P g W Y R X.$.$.$.#.#.} | } / $.] ` $.#.{ O.$.#.$.$.$.$.#.O.' U R #.} I @.Y X.#..._ ..X.E F | l W $.",
"X.u G T D O.O.O...^ | O.O.K K D 0 W O.O.O.O.O.O._ _ ! O./ ] _ Q O.O.H ! Y E [ O.O....._ / [ / B { Y K H E } R { ] ! | F Y J u X.",
"K : _ b Q } } } { H ) } T z Z s v } } } } } } } Q ! ] ! E _ Y _ ] / B H j v H } } Y Q ! B ( ` H a Q N c H ) A H m Q ] Q b _ : K ",
"2 z Q N _ _ _ _ _ J L E e u q B Z ) _ ( _ _ _ _ E E _ P H D ! D H Z p B y p m Q / c E Z g E B D I u g 8 D D C D c G _ _ N E z , ",
"0 Y p I Q E E E E z Z , 3 y B Z v Y P P E E E H D m Y E B B D c g j w j 1 g j E B j m B p D m D B D N 7 = N g v p Z P E Y s T 0 ",
"m d g K H D H D P j 0 C N j B c j D v c H P P v D c B D c v g m w 9 c y ; g w D w p g 9 w c p Z g m B m j 7 e j y v m H Z Z g D ",
"3 g g j y B c B B 2 B B B i B g i c p y v Z D c m g c m j g y g 6 1 y 9 # * 1 p y 1 6 6 6 p w m g j p g m h ; u r j m d Z G c p ",
"y j y 0 w e p p 2 z B g m w 9 m g w w w v B c p p 9 y g p p < 1 1 6 < 1 # ; * w y & 4 1 * w ; y y 6 p p p g g = 1 p y 9 c B m g ",
"j r 4 - < w < * 6 y g p p > 1 7 1 6 y 9 p j j 1 r 1 w y w w * < * 4 ; ; + & & < < # < 1 & 9 > ; < : y p y p w 9 # 4 y 9 4 j g j ",
"6 7 ; ; : % O % & * - $ # + # > 6 < > < y i w ; 9 4 < 6 1 > & * ; # * ; + +   & ; + ; * & 1 & 1 * $ + $ % * & & $ o $ 9 9 q 6 y ",
"> < % > o @ * % & > 1 4 & ; > & & * * # 6 5 < * 1 1 % > < & # * * # & & o + + & & # ; & * & & ; & 4 ; = ; * & & $ $ # + < ; 4 4 ",
"; & + o # * * < # * ; 9 * & # + + # + + * & # + * * + & # + # + # # # & o + + + # + * + & + # & & ; & & & * < & @ & ; * o & * < ",
"* X . + + % & @ o # # ; # o & X + + o + & # + + + # + # + X + X + + # # X + + + o + + o + + + + # # # + # # # # @ # + % # X o & ",
"+ . X X + + + + + o + # # X + X X o X + + + X X . X X + X X X X + X + o X X X . X X + + X X X + # # # + o X + X X o X # # + . X ",
". . . . X + o o X X X X X . X     X . . X X . .   X . X . X X X X . o X     X X   . o X X . X X X + X . X X X X . X . + X + X X ",
". X . X X X X o X X . . X   X   . . . X X X   .   . . .   . . X X . X X .     X   . X   .     . . X X X .   X X . . . . X X X   ",
". . .     . . X X X . . .   . . .   .   . .       . .   X     . .   X X             .   .     . . X . . . . X   .   . . . . . . ",
"          .   . . .   .     .       .   .         X   X         .   . .       .         .     .   .   .     .       .           ",
"    .   .     .   .   .                               . .                                                                       ",
".                                                                     .                                                       . ",
"              .                                                                                                                 ",
"                                                                                                                                ",
"                                                                                                                                ",
"                                                                                                                                ",
"                                                                                                                                ",
"                                                                                                                                ",
"                                                                                                                                ",
"                                                                                                                                ",
"                                                                                                                                "
};
