/* XPM */
static char *result[] = {
/* columns rows colors chars-per-pixel */
"64 64 247 2 ",
"   c #0E5D39",
".  c #13543E",
"X  c #10593C",
"o  c #1D523D",
"O  c #007D2B",
"+  c #04742E",
"@  c #0B6436",
"#  c #0A6936",
"$  c #047636",
"%  c #197137",
"&  c #2C7536",
"*  c #45783C",
"=  c #2D1C5A",
"-  c #1E3C4A",
";  c #22384D",
":  c #292556",
">  c #262B53",
",  c #2A2758",
"<  c #273656",
"1  c #352D58",
"2  c #2B3B62",
"3  c #7C386D",
"4  c #5E3876",
"5  c #1A4446",
"6  c #164D42",
"7  c #1A4747",
"8  c #145241",
"9  c #17574A",
"0  c #185358",
"q  c #254658",
"w  c #2C4F4A",
"e  c #077847",
"r  c #0A7857",
"t  c #156D51",
"y  c #2C7C53",
"u  c #3A7B5C",
"i  c #2E6F4E",
"p  c #165B67",
"a  c #1D4F6B",
"s  c #315575",
"d  c #2B4F6B",
"f  c #0F756C",
"g  c #31657B",
"h  c #2E7071",
"j  c #4E5053",
"k  c #4F6B48",
"l  c #515074",
"z  c #774E70",
"x  c #4B7967",
"c  c #6D6257",
"v  c #8D3570",
"b  c #AA357A",
"n  c #B6347E",
"m  c #885B5A",
"M  c #B7605F",
"N  c #925268",
"B  c #A95A6B",
"V  c #A75C75",
"C  c #B64776",
"Z  c #8D6B6A",
"A  c #BB6B6C",
"S  c #B76567",
"D  c #AD6476",
"F  c #AC657D",
"G  c #A9677C",
"H  c #BD6D75",
"J  c #B46A7A",
"K  c #B66978",
"L  c #BD7278",
"P  c #B6746D",
"I  c #90705B",
"U  c #D7795E",
"Y  c #CE776A",
"T  c #C6786C",
"R  c #DA7E61",
"E  c #D27969",
"W  c #CB7C73",
"Q  c #C57573",
"!  c #C06F74",
"~  c #008234",
"^  c #00863A",
"/  c #00893D",
"(  c #0D813A",
")  c #108832",
"_  c #2B8C2C",
"`  c #2FAA29",
"'  c #18A31A",
"]  c #48943A",
"[  c #4FB336",
"{  c #34C51E",
"}  c #4ACF28",
"|  c #6AE534",
" . c #008C43",
".. c #018C4A",
"X. c #088849",
"o. c #00924C",
"O. c #068758",
"+. c #168B54",
"@. c #009653",
"#. c #009C5C",
"$. c #01965A",
"%. c #198246",
"&. c #2D8B56",
"*. c #26BB45",
"=. c #068968",
"-. c #049763",
";. c #088A75",
":. c #139C7A",
">. c #0E9570",
",. c #3B8874",
"<. c #2E8E6E",
"1. c #00A164",
"2. c #00A56C",
"3. c #0CA26F",
"4. c #00AA73",
"5. c #02A979",
"6. c #00B17E",
"7. c #14A472",
"8. c #2FB077",
"9. c #14AD52",
"0. c #4A8974",
"q. c #678B5F",
"w. c #8C8F67",
"e. c #A78564",
"r. c #CC8373",
"t. c #C9847A",
"y. c #D38C7A",
"u. c #D48A6D",
"i. c #E98961",
"p. c #E28564",
"a. c #E89771",
"s. c #E69C75",
"d. c #E9A074",
"f. c #0E768A",
"g. c #36768B",
"h. c #1D69AD",
"j. c #2D5A97",
"k. c #507593",
"l. c #5E6597",
"z. c #197DC6",
"x. c #BF3580",
"c. c #CB3883",
"v. c #AA6481",
"b. c #B37480",
"n. c #96699D",
"m. c #A473C9",
"M. c #0C908B",
"N. c #338F8C",
"B. c #01B587",
"V. c #03BA94",
"C. c #0EAB90",
"Z. c #2FB591",
"A. c #0F94AF",
"S. c #3095AA",
"D. c #0AB5B1",
"F. c #36AEA6",
"G. c #518B90",
"H. c #6D8687",
"J. c #4898AF",
"K. c #4AA9B2",
"L. c #5DB5AA",
"P. c #00C299",
"I. c #19CAAE",
"U. c #45CBB4",
"Y. c #168BD0",
"T. c #3692D0",
"R. c #0AB0C7",
"E. c #179CFF",
"W. c #1D9CFE",
"Q. c #1797F4",
"!. c #1792E8",
"~. c #239BFF",
"^. c #2B9BFF",
"/. c #339AFF",
"(. c #3B9AFF",
"). c #3293EC",
"_. c #1CA3FD",
"`. c #12A3E7",
"'. c #25A7FE",
"]. c #35B3FD",
"[. c #2AACCA",
"{. c #5194CB",
"}. c #4BBCC8",
"|. c #5CA6C6",
" X c #4A9EF9",
".X c #4B9BE7",
"XX c #7D9BE0",
"oX c #49A6FA",
"OX c #5AA7F9",
"+X c #4DB4FE",
"@X c #78BBFC",
"#X c #6AADF5",
"$X c #3DCAFF",
"%X c #37C4FF",
"&X c #38D5CC",
"*X c #52CDDA",
"=X c #4ACBCD",
"-X c #45D4FF",
";X c #4DDEFF",
":X c #55DDE5",
">X c #78C6FC",
",X c #67D1F1",
"<X c #57E5ED",
"1X c #4EE0FF",
"2X c #52E4FF",
"3X c #5AECFA",
"4X c #5FF4FF",
"5X c #4EE0E2",
"6X c #64EFF9",
"7X c #64E6F3",
"8X c #73F5FE",
"9X c #57D4D4",
"0X c #8493B9",
"qX c #9482A7",
"wX c #829EE2",
"eX c #9594EC",
"rX c #89A4E4",
"tX c #9BB6EA",
"yX c #93B0ED",
"uX c #A7B5EE",
"iX c #ADB9F1",
"pX c #B4BBF2",
"aX c #B9BBF4",
"sX c #B5B7F3",
"dX c #A6AEEE",
"fX c #9D9BCE",
"gX c #C5BEF8",
"hX c #96C9F3",
"jX c #AAC8EE",
"kX c #B5C3F2",
"lX c #BAC7F4",
"zX c #B8D7F2",
"xX c #AECFF2",
"cX c #8AF2F8",
"vX c #BCE6F4",
"bX c #A8F6F9",
"nX c #C6C8F8",
"mX c #C4DAF6",
"MX c #C8D5F8",
"NX c #D2D4FA",
"BX c #C3E3F5",
"VX c #C4EBF5",
"CX c #CBEEF6",
"ZX c #C9E6F8",
"AX c #D1EBF7",
"SX c #D3F1F7",
"DX c #E0F3F8",
/* pixels */
"(.(.(.(.(.(.(.(.(.(.(.(.(.(.(.(.(.(.(.(.(.(.(.(.(.(.(.(.(.(.(.(.(.(.(.(.(.(.(.(.(.(.(.(.(.(.(.(.(.(.(.(.(.(.(.(.(.(.(.(.(.(.(.(.",
"(.(.(.(.(.(.(.(.(.(.(.(.(.(.(.(.(.(.(.(.(.(.(.(.(.(.(.(.(.(.(.(.(.(.(.(.(.(.(.(.(.(.(.(.(.(.(.(.(.(.(.(.(.(.(.(.(.(.(.(.(.(.(.(.",
"(.(.(.(.(.(.(.(.(.(.(.(.(.(.(.(.(.(.(.(.(.(.(.(.(.(.(.(.(.(.(.(.(.(.(.(.(.(.(.(.(.(.(.(.(.(.(.(.(.(.(.(.(.(.(.(.(.(.(.(.(.(.(.(.",
"(.(.(.(.(.(.(.(.(.(.(.(.(.(.(.(.(.(.(.(.(.(.(.(.(.(.(.(.(.(.(.(.(.(.(.(.(.(.(.(.(.(.(.(.(.(.(.(.(.(.(.(.(.(.(.(.(.(.(.(.(.(.(.(.",
"(.(.(.(.(.(.(.(.(.(.(.(.(.(.(.(.(.(. XtXmXCXOX(.(.(.(.(.(.(.(.(.(.(.(.(.(.(.(.(.(.(.(.(.(.(.(.(.(.(.(.(.(.(.(.(.(.(.(.(.(.(.(.(.",
"(.(.(.(.(.(.(.(.(.(.(.OXhXAXxXoX(.oXXXlXVXzXzXSX@X(.(.(.(.(.(.(.(.(.(.(.(.(.(.(.(.(.(.(.(.(.(.(.(.(.(.(.(.(.(.(.(.(.(.(.(.(.(.(.",
"(.(.(.(.(.(.(.(.(.(.@XsXMXMXZXhXoXdXmXBXzXmXvXCXVX#X/.(.@X@X(.(.(.(.(.(.(.(.(.(.(.(.(.(.(.(.(.(.(.(.(.(.(.(.(.(.(.(.(.(.(.(.(.(.",
"(.(.(.(.(.(.(. XOXtXvXlXnXzXvXvX.XdXkXCXlXzXzXzXCXoXOXyXBXCXyXvX#X(.(.(.(.(.(.(.(.(.(.(.(.(.(.(.(.(.(.(.(.(.(.(.(.(.(.(.(.(.(.(.",
"(.(.(.(.(.(. XiXMXzXmXMXMXAXjXkX#XyXuXMXxXkXCXCXxXxXmXMXmXiXBXVXbXBX@X(.(.(.(./././.^./././.^.^././.^.(.(.(.(.(.(.(.(.(.(.(.(.(.",
"^.^.(.(.(.(.OXaXzXgXnXZXnXiXMXBXjXAXtXtXxXzXVXlXMXvXBXaXkXvXvXmXaXCXCXOX~.~.^.^.~.~.W.~.W.~.~.~.^.W.~.~.~.^.^.~.~.^.~.~.^.~.~.^.",
"W.~.~.^.^.(.OXdXkXyXsXpXkXrXiXkXwXpXiXwXkXkXuXwXkXkXpXrXyXkXkXpXdXkXlXoX~.~.~.E.W.~.W.~.W.~.E.W.W.E.~.~.W.^.E.~.~.~.W.~.~.W.^.W.",
"W.~.^.E.^.~.~.~.W.~././././.~./.^.^.~.^.W.~.'.~.~.~.~.W.W.~.E.W.W.E.W.E.E.E.E.~.E.E.W.W.E.E.W.W.^.W.E.E.~.E.E.~.E.~.E.E.~.E.~.~.",
"~.W.W.~.W.W.W.W.W.~.~.~.W.W.~.W.W.~.E.~.~.W.~.W.~.~.W.W.E.E.W.W.E.~.E.E.E.E.E.E.E.E.E.W.E.E.E.E.E.E.E.E.E.E.E.E.E.~.W.E.E.E.E.E.",
"E.E.~.~.~.E.~.W.^.E.~.E.W.^.W.~.E.~.~.E.E.W.W.W.W.E.E.W.W.E.E.E.E.E.E.E.E.E.E.E.E.E.E.E.E.E.E.W.E.E.E.E.E.E.E.E.E.E.E.E.E.E.E.E.",
"E.E.E.E.E.E.E.E.E.E.W.W.W.E.E.~.E.E.E.E.E.E.E.E.E.E.E.E.E.E.E.E.E.E.E.E.E.E.E.E.E.E.E.E.E.E.E.E.E.E.E.E.E.E.E.E.E.E.E.E.E.E.E.E.",
"E.E.E.E.E.E.E.E.E.E.E.E.E.E.E.E.E.E.E.E.E.E.E.E.E.E.E.E.E.E.E.E.E.E.E.E.E.E.E.E.E.E.E.E.E.E.E.E.E.E.E.E.E.E.E.E.E.E.E.E.E.E.E.E.",
"E.E.E.E.E.E.E.E.E.E.E.E.E.E.E.E.E.E.E.E.E.E.E.E.E.E.E.E.E.E.E.E.E.E.E.E.E.E.E.W.E.Q.E.E.E.E.E.E.E.E.E.E.E.E.E.E.E.E.E.E.E.E.E.E.",
"E.E.E.E.E.E.E.E.E.E.E.E.E.E.E.E.E.E.E.E.E.E.E.E.E.E.E.E.E.E.E.E.E.E.E.E.E.E.hXVXuX#XE.E.E.E.E.E.E.E.E.E.E.E.E.E.E.E.E.E.E.E.E.E.",
"E.E.E.E.E.E.E.E.E.E.E.E.E.E.E.E.E.E.E.E.E.E.E.E.E.E.E.E.E.E.E.E.E.E.W.].>X>XCXVXBXuX.XE.E.E.E.~.>X@XE.E.E.E.E.E.E.E.E.E.E.E.E.E.",
"E.E.E.E.E.E.E.E.E.E.E.E.E.E.E.E.E.E.E.E.E.E.E.E.E.E.E.E.E.E.E.E.E.E.].VXCXzXjXBXvXsXdX#XE.E.,XDXSXBXuX XE.E.E.E.E.E.E.E.E.E.E.E.",
"E.E.E.E.E.E.E.E.E.E.E.E.E.E.E.E.E.E.E.E.E.E.E.E.E.E.E.E.+X>X@XE.E.E.zXCXCXVXVXpXCXBXBXaX#X_.vXBXmXBXnXkX@XW.W.E.E.E.E.E.E.E.E.E.",
"E.E.E.E.E.E.E.E.E.E.E.E.E.E.E.E.E.E.E.E.E.E.E.E.E.+XCXOXSXVXmX#XE.E.>XCXxXzXzXmXzXZXnXaXXX'.vXBXzXlXnXjXBXkX'.E.E.E.E.E.E.E.E.E.",
"E.E.E.E.E.E.E.E.E.E.E.E.E.E.E.E.E.E.E.E.E.E.E.@X+XSXCXvXkXmXBXlXAX>XxXvXCXVXzXlXvXNXdXXX(._.hXzXZXMXlXDXVXzXnXiXoXE.E.E.E.E.E.E.",
"E.E.E.E.E.E.E.E.E.E.E.E.E.E.E.E.E.E.E.E.E._.hXCXAXhXBXvXjXjXnXnXxXVXzXlXCXSXkXuXtXnXrXmXyXAXMXkXnXNXMXkXlXNXlXvXkX~.E.E.E.E.E.E.",
"E.E.E.E.E.E.E.E.E.E.E.E.E.E.E.E.E.E.E.E.E.#XCXVXMXsXNXvXvXBXuXiXZXVXBXnXjXVXvXBXjXrXhXVXmXtXBXBXsXnXBXBXgXgXjXmXuX~.E.E.E.E.E.E.",
"E.E.E.E.E.E.E.E.E.E.E.E.E.E.E.E.E.E.E.E.E.oXkXaXaXwXaXlXpXpXrXrXiXpXaXiXwXdXaXaXuXXXsXaXtXwXaXpXwXuXaXpXsXyXaXaXrX'.E.E.E.E.E.E.",
"E.E.E.E.E.E.E.E.E.E.E.E.E.E.E.E.E.E.E.E.E.E.W.'.W.W.~.W.W.~.W.W.~._.~.W.W.W.Q.'.W.W._.E.Q.~.'.W.~._._.~.~.Q.~.W.~.E.E.E.E.E.E.E.",
"E.E.E.E.E.E.E.E.E.E.E.E.E.E.E.E.E.E.E.E.E.E.E.E.E.E.E.W.E.E.E.E.E.E.E.E.E.E.E.W.E.E.W.E.E.E.E.E.E.W.E.E.E.W.E.E.W.E.E.E.E.E.E.E.",
"E.E.E.E.E.E.E.E.E.E.E.E.E.E.E.E.E.E.E.E.E.E.E.E.E.E.E.E.E.E.E.E.E.E.E.E.E.E.E.E.Q.E.E.E.W._.E.E.E._.E.E.E.E.E.E.E.E.E.E.E.E.E.E.",
"E.E.E.E.E.E.E.E.E.E.E.E.E.E.E.E.E.E.E.E.E.E.E.E.E.E.E.E.E.E.E.E.E.E.E.E.E.E.E.!.A.C.B.<.qXt h. .O f.T.u f A.E.E.E.E.E.E.E.E.E.E.",
"E.E.E.E.E.E.E.E.E.E.E.E.E.E.E.E.E.E.E.E.E.E.E.E.E.E.E.E.E.E.E.E.E.E.E.E.E.W.h.a ~ B.9.k.O f.p 4.O 2.<.x ) r E.E.E.E.E.E.E.E.E.E.",
"E.E.E.E.E.E.E.E.E.E.E.E.E.E.E.E.E.E.E.E.E.E.E.E.E.E.E.E.E.E.Y.{.Y.E.E.E.E.Q.p $ #.+.g.5.O @ @.=.P.1./ 1.#.l h.E.E.E.E.E.E.E.E.E.",
"E.E.E.E.E.E.E.E.E.E.E.E.E.E.E.E.E.E.E.E.E.E.E.E.E.E.E.E.E.Q.=.,.5.C.E.E.E.z.; e =.+.y  .    @.O.$.^ B.B.~ q m.W.W.E.E.E.E.E.E.E.",
"E.E.E.E.E.E.E.E.E.E.E.E.E.E.E.E.E.E.E.E.E.E.E.E.E.E.E.E.Y.9 O H. ...;.!.E.Y.q + O   # 8 ; 8 / /  .7.N.f X   O y ).E.E.E.E.E.E.E.",
"E.E.E.E.E.E.E.E.E.E.E.E.E.E.E.E.E.E.E.E.E.E.E.E.E.E.W.E.h.= O O  .5.-.A.f.r h.- O   : = > @ ^ O ~ 7 +.$ . @ f f :.A._.E.E.E.E.E.",
"E.E.E.E.E.E.E._.E.E.E.E.E.E.E._.E.E.E.E.E.E.E.E.E.E.W.M.u l O  .6 u G.4.=.# . - - q M.6.r 5 . 8 > 6 O $ o ,.~ D.P.^ ;.E.E.E.E.E.",
"E.E.E.E._.E.E._.E._.E.E._.E.E._.E.E.E.E.E.E.E.E.E.E.z.u  . .6.1.=.r <.;...r   O    . .O O O.= = : 5 8 > > <.5.O.M.# @ W.E.E.E.E.",
"_._._._.$X%X].$X%X%X%X%X$X_._.'.E.E.E.E.E.E.E.E.E.E.l.8 5.B.o.>.... X.u 7.r - e 0.w o.0.t - + O  .a d X > > + ;.e + > ].%X%X_._.",
"1X2X$X2X%X2X3X$X1X$X%X1X-X$X%X2X'.'.].%X]._.E.E.W.N.+.9 e N.o... .8 - # # $ 6 e O $ @.<.( w x O /  .M.=.# 8 ; @ X : g.;X4X-X$X-X",
"4X$X4X4X2X2X1X4X4X4X4X-X4X4X2X1X2X1X$X;X4X$X].=X5.M.r 8 + e 7 @ ~ 7 a q 6   - +   r $.~ O , y ) <.~ @.#.$.@.8 = = s }.4X4X3X4X4X",
"4X4X4X3X2X4X4X4X4X4X4X4X4X4X4X4X2X2X4X1X-X2X2XO.O.M.#.x - @ 5 ; > e ~ -.t 8 @ 6 i   X O + - C.M.;.g.,.~ ~ #.+ 6 = j.4X4X4X4X4X4X",
"4X4X4X4X4X4X4X4X4X4X4X4X4X4X4X4X4X4X4X4X4X4X4X5 @ =.e > 5 a p $ @ - +   i %...B.3.,.5 ; q 9 2.;.X O  .2.2.O X - = g.4X4X4X4X4X4X",
"4X4X4X4X4X4X4X4X4X4X4X4X4X4X4X4X4X4X4X4X4X4X4Xg.> . ; O.O.5.$ O i 0.8 i &.$  .@.~  .O . : . O O # . / O O f.f : g.<X<X4X4X4X4X4X",
"4X4X4X4X4X4X4X4X4X4X4X4X4X4X4X4X4X4X4X4X4X4X4X<Xd : + o.O &.;.,.<.( / M.>.X @. .# O y @ : 5 O @.0 t  .p p - j.4X&XI.C.6X4X4X4X4X",
"4X4X4X4X4X4X4X4X4X4X4X4X4X4X6X6X4X3X4X4X4X4X4X4X1 ; @ o.-.+.t =.B.$ 2.^ 2.5  ...<   +.#.o + f f.$ > @ 8 s g.t +.4.5.:.<.7X4X4X4X",
"4X4X4X4X4X4X4X4X4X4XK.U.4X,Xl.n.n.L.4X4X4X4X4X5X*Xq p r $  .. O ~ . X.O k.l O #   j X./ O + @ . 6 - - = - - @ 1./ &.qXo.U.3X4X4X",
"4X4X4X4X4X6X3X<X4X4Xo { Z.l.b c.] 8.4X4X4X4X:X>.V.F.d q p $ 8 ;.X.X X . + ; 5 o > r ..-.@ 7 @ 7 > = = : - > . O O 4.5.~ 7 4X4X4X",
"4X4X4X4X4X&.C x.3 |.,.` w v c.] 8.8.rX4X4X4XO.H.X.1.# p > 7 6 9 e + > o o = : , q # ~ O ; : = = = , h h = 5 . # o   O 6 h 4X4X4X",
"4X4X4X4X4X9X_ C c.l ) | 7 v N ' *.k 0X4X4XJ.$ -.o.O 8 5 > > : > 8 , : < , s h > > ; 5 7 < = = 2 }.=X<.}.}.=Xd > 8 8 > d <X4X4X4X",
"4X4X4X4X0X*.U._ c.x.j & [ & n m N b hX4X4X*X7   8 6 6 q s h < , = = N.q < h s K.g > = = = : g :X4X4X4XN.Z.Z.g.3XJ.J.*X4X6X4X4X4X",
"4X4X4X4X0XN _ ' N c | [ ; ' ] q l |.4X4X4X4X*Xg.- N.g *XF.}.4X*X> = > > = s 4X4X<XJ.< = = < }.4X4X4X4X<X=X=X<X4X3X4X4X4X4X4X4X4X",
"4X4X4X4X7X3 v v N   _ i o [ | ` =X4X4X4X4X4X4X4X4X4X9XF.U.4X4X3X}.> = : G.cXcX8X8XcX=X7 = - g <X4X4X4X4X4X4X4X4X4X4X4X4X4X4X4X4X",
"6X6X6X6X6X,XK._ } ` q w k b 3 x 6XU.K.6X6X3X6X6X6X6X6X6X8XcX5XZ.t q < L.bXbXbXbXbXcXbXL.q = 1 1 g.7X6X6X6X6X4X6X6X6X6X6X6X6X6X6X",
"d.d.y.s.a.s.t.] [ & o 5 _ c c.3 c { w d.a.s.y.a.s.y.a.a.I q.T.R...w.y.w.q.y.y.d.d.y.d.d.t.s.s.y.d.a.y.s.a.s.y.a.s.y.s.s.t.s.a.y.",
"T T L P T t.G I * c k j _ & v c.j i c P W r.D r.r.D r.q.A.8.S.B.x |.S.1.P.Z.0.r.r.D y.Y G W T J T r.L P Q r.D r.r.D t.T G W T b.",
"u.b.P r.J S W ] { w _ 3 k _ k v [ [ c r.L B r.t.N 0.fX0.eXP.P./ M.D.V.X.+.C.0Xx B W y.V T y.V ! r.J P r.b.B r.t.B W y.V T r.V ! ",
"S F W S K Q ! * { % 7.O.z v v & & _ Z S K W S N % O O #.^ 5.2.-._.D.2.,.{.A.y +.I ! T J Q A v.W S v.W S J Q H H L A ! K Q S D W ",
"M E H B Y Y B U x N.[.>.G.r B.9.8 m K B E Q B z # #.o.4.^ C.O. .R.D.^ C.=.O Z.[.<.V Y Y B ! E V M Y ! B Y ! B Y T B Y E V ! Y J ",
"! B G K B F x fXG.C.6.+.A.5.>.Z.0.j v.H B ! V N q ~ #.P.V.R.;.2.o.-. .V.O.$ V.=.O.v.H B V ! B v.! B v.! B b.F S D F H V v.! B v.",
"p.K p.p.! j O O ^ o.o.R.R.X.N.;.G.t p.w.S.&.I = @ O O #.4.o.o.o.=.A.^ O ^ <..XC.+.P ] Z.w.u.K R p.K R R H R R Y T R R ! R p.J R ",
"! F S J J j O.4.B.D.;.-.3.#.C. .P.O.<.J.D.<.k.p 6 4.o.8 O O 4.B.O O u G.N.C.B.@.J.R.-.3.C.H.G B ! v.S K F H V K K V ! F B H v.B ",
"R R Q E m < + ~ 4.-.#...A.~ ~ ..,.G.{.B.1.S.D.p = ~ ~ + : . $ ~ + # %.&.:.C.B.;.`.P.>.{.A.<.] L R R Q E R E Q U p.! U p.J U p.K ",
"D D F D N w r  .X + 2. .+ . O.e ~ ....2. .`.B.t , X # @ = ; > . . @ @.#...5.=.$.R.4.-.>./ F.A.Z D D v.K V J v.V K F V J V V K v.",
"i.K i.i.! 1 . O 7 ; . + > 7 - 5 ..V.6.R.o.1...V.t t p : = = = : - 7 $ 2.V.V.=.$.=.O.1.@.) 4.& e.i.K i.i.! p.i.E E i.p.! i.i.K i."
};
