/* XPM */
static char *result[] = {
/* columns rows colors chars-per-pixel */
"64 64 240 2 ",
"   c #0E5D39",
".  c #12563D",
"X  c #03752E",
"o  c #007D2A",
"O  c #0A6837",
"+  c #067939",
"@  c #176E3F",
"#  c #387339",
"$  c #476A3C",
"%  c #5D533E",
"&  c #2E1B5B",
"*  c #1F3B4B",
"=  c #22344E",
"-  c #223B4D",
";  c #292756",
":  c #253355",
">  c #35205C",
",  c #2C3665",
"<  c #174D42",
"1  c #1A4547",
"2  c #145344",
"3  c #1C4F59",
"4  c #274E55",
"5  c #057B4C",
"6  c #10764D",
"7  c #387D56",
"8  c #2D714F",
"9  c #2B4A6A",
"0  c #2C526D",
"q  c #10736F",
"w  c #2C716F",
"e  c #175864",
"r  c #5A5845",
"t  c #477450",
"y  c #4A7770",
"u  c #797070",
"i  c #665A5B",
"p  c #B72E6F",
"a  c #BC1A65",
"s  c #C6347B",
"d  c #CE2579",
"f  c #DB1E7E",
"g  c #B7605F",
"h  c #AA5B6C",
"j  c #A85969",
"k  c #AB5E73",
"l  c #A55B76",
"z  c #AD4473",
"x  c #BB6B6B",
"c  c #B76567",
"v  c #BC726F",
"b  c #AD6276",
"n  c #AC647E",
"m  c #BD6E74",
"M  c #B0667A",
"N  c #B46A7A",
"B  c #BA6C78",
"V  c #B26574",
"C  c #BE7076",
"Z  c #BD737B",
"A  c #8C4B5D",
"S  c #D3755C",
"D  c #D97C5F",
"F  c #CE776A",
"G  c #C57A6E",
"H  c #C7766C",
"J  c #DA7E62",
"K  c #D27B6B",
"L  c #D37967",
"P  c #C06F74",
"I  c #C47373",
"U  c #CB7D73",
"Y  c #C37575",
"T  c #018539",
"R  c #008D44",
"E  c #058948",
"W  c #00924B",
"Q  c #009552",
"!  c #02995A",
"~  c #108653",
"^  c #2A8456",
"/  c #039863",
"(  c #0C8972",
")  c #228E75",
"_  c #00A367",
"`  c #01A875",
"'  c #4C9372",
"]  c #DE8366",
"[  c #CC8373",
"{  c #C9837B",
"}  c #D38C79",
"|  c #CE9079",
" . c #E38564",
".. c #E98961",
"X. c #E28B6D",
"o. c #E89771",
"O. c #E79C75",
"+. c #E9A074",
"@. c #1B5685",
"#. c #285485",
"$. c #117990",
"%. c #33718B",
"&. c #2060A8",
"*. c #607B83",
"=. c #1A7BC2",
"-. c #BE3986",
";. c #C53882",
":. c #D03284",
">. c #B6508E",
",. c #986E91",
"<. c #A96381",
"1. c #AE7182",
"2. c #AC7091",
"3. c #A06DA4",
"4. c #C64587",
"5. c #C95896",
"6. c #CD4D90",
"7. c #C6649B",
"8. c #DB5BA3",
"9. c #CF6FA9",
"0. c #0B8B92",
"q. c #35938E",
"w. c #07B48F",
"e. c #32B599",
"r. c #348BAC",
"t. c #0B9EAC",
"y. c #598783",
"u. c #489987",
"i. c #688C91",
"p. c #52A98D",
"a. c #4EB6B5",
"s. c #6FB5A7",
"d. c #6FA7A5",
"f. c #00C49C",
"g. c #62C0A7",
"h. c #179CFF",
"j. c #1C9CFF",
"k. c #1797F5",
"l. c #1792E9",
"z. c #239BFF",
"x. c #2B9BFF",
"c. c #339AFF",
"v. c #3B9AFF",
"b. c #2A94EE",
"n. c #1DA4FF",
"m. c #25ADFF",
"M. c #26A4FE",
"N. c #2DB7FF",
"B. c #32BDFF",
"V. c #30B0F3",
"C. c #178AD2",
"Z. c #4CB8CB",
"A. c #419DFE",
"S. c #48A5F5",
"D. c #47A9FD",
"F. c #56A6F8",
"G. c #6BAFF7",
"H. c #7EABCB",
"J. c #3DCAFF",
"K. c #39C5FF",
"L. c #36CEE1",
"P. c #4ECED4",
"I. c #44D3FF",
"U. c #4DDEFF",
"Y. c #49D7FB",
"T. c #51D5E4",
"R. c #6AD7E9",
"E. c #52E4FF",
"W. c #56EAFF",
"Q. c #5AEEFF",
"!. c #5AE9F2",
"~. c #5FF4FF",
"^. c #52E1F9",
"/. c #64EFF9",
"(. c #66E4F4",
"). c #66F3FE",
"_. c #6FEEF6",
"`. c #70D7D2",
"'. c #8C8891",
"]. c #8E90AE",
"[. c #BA8FB8",
"{. c #BB91BA",
"}. c #B795B8",
"|. c #A88CAC",
" X c #B1A2B9",
".X c #9F95A5",
"XX c #D082B7",
"oX c #D8ABB0",
"OX c #ECB7A8",
"+X c #F1B6AD",
"@X c #D59C93",
"#X c #F3C4B6",
"$X c #8D9AC4",
"%X c #B6A8C5",
"&X c #99B7EA",
"*X c #90AEEA",
"=X c #A8B8EE",
"-X c #AEB9F0",
";X c #B7BCF3",
":X c #A5A2C7",
">X c #CDB2D6",
",X c #CAB3D8",
"<X c #CAAFD8",
"1X c #C2BFF7",
"2X c #D88BC1",
"3X c #86CAFB",
"4X c #99C9F5",
"5X c #A9C4ED",
"6X c #B5C7F2",
"7X c #BCD4F4",
"8X c #A9CBF5",
"9X c #90F4F9",
"0X c #BEE7F5",
"qX c #B5F6F8",
"wX c #96DAD7",
"eX c #D8D7D9",
"rX c #D1C9CC",
"tX c #F7C8C9",
"yX c #F6D8D7",
"uX c #EED0D3",
"iX c #C6CCF7",
"pX c #C2D3F5",
"aX c #C5DDF6",
"sX c #CBD6F8",
"dX c #DFD2F2",
"fX c #D1DEF9",
"gX c #D9CCE3",
"hX c #E2CCE9",
"jX c #E8DBE7",
"kX c #F2DAE3",
"lX c #C4E4F5",
"zX c #C3EAF5",
"xX c #CBECF6",
"cX c #C9E5F7",
"vX c #D3F1F7",
"bX c #D1ECF7",
"nX c #F5E6E9",
"mX c #F4E8F2",
"MX c #EBE1E6",
"NX c #F9E1DD",
/* pixels */
"v.v.v.v.v.v.v.v.v.v.v.v.v.v.v.v.v.v.v.v.v.v.v.v.v.v.v.v.v.v.v.v.v.v.v.v.v.v.v.v.v.v.v.v.v.v.v.v.v.v.v.v.v.v.v.v.v.v.v.v.v.v.v.v.",
"v.v.v.v.v.v.v.v.v.v.v.v.v.v.v.v.v.v.v.v.v.v.v.v.v.v.v.v.v.v.v.v.v.v.v.v.v.v.v.v.v.v.v.v.v.v.v.v.v.v.v.v.v.v.v.v.v.v.v.v.v.v.v.v.",
"v.v.v.v.v.v.v.v.v.v.v.v.v.v.v.v.v.v.v.v.v.v.v.v.v.v.v.v.v.v.v.v.v.v.v.v.v.v.v.v.v.v.v.v.v.v.v.v.v.v.v.v.v.v.v.v.v.v.v.v.v.v.v.v.",
"v.v.v.v.v.v.v.v.v.v.v.v.v.v.v.v.v.v.v.v.v.v.v.v.v.v.v.v.v.v.v.v.v.v.v.v.v.v.v.v.v.v.v.v.v.v.v.v.v.v.v.v.v.v.v.v.v.v.v.v.v.v.v.v.",
"v.v.v.v.v.v.v.v.v.v.v.v.v.v.v.v.v.v.v.v.v.v.v.v.v.v.v.v.v.v.v.v.v.v.v.v.v.v.v.v.v.v.v.v.v.v.v.v.v.v.v.v.v.v.v.v.v.v.v.v.v.v.v.v.",
"v.v.v.v.v.v.v.v.v.v.A.G.7XxX4XA.v.v.v.v.v.v.v.v.v.v.v.v.v.v.v.v.v.v.v.v.v.v.v.v.v.v.v.v.v.v.v.v.v.v.v.v.v.v.v.v.v.v.v.v.v.v.v.v.",
"v.v.v.v.v.v.v.v.v.F.G.;XzXzXvX3Xv.v.v.v.v.v.v.v.v.v.v.v.v.v.v.v.v.v.v.v.v.v.v.v.v.v.v.v.v.v.v.v.v.v.v.v.v.v.v.v.v.v.v.v.v.v.v.v.",
"v.v.v.v.v.v.v.v.G.sXlX-XaX7X0X7Xv.v.v.v.v.v.v.v.v.v.v.v.v.v.v.v.v.v.v.v.v.v.v.v.v.v.v.v.v.v.v.v.v.v.v.v.v.v.v.v.v.v.v.v.v.v.v.v.",
"v.v.v.v.A.A.G.vX&X7XzXlX*X;XpX4XD.v.v.v.v.v.v.v.v.v.v.v.v.v.v.v.v.v.v.v.v.v.v.c.c.x.x.c.c.c.x.x.c.c.x.v.v.v.v.v.v.v.v.v.v.v.v.v.",
"x.x.v.v.v.F.;XlX8X-X7X&X;XlXzXxXvXA.v.v.v.v.v.v.v.v.v.v.c.c.v.c.c.z.x.z.z.z.z.x.x.z.j.z.j.z.z.z.x.j.z.z.z.x.x.z.j.x.z.z.z.z.x.x.",
"j.z.z.x.c.&XxXfX8X6XcX=X;XlXbXaXxXG.3XG.v.v.x.z.x.x.x.x.z.z.z.z.j.z.j.j.j.z.z.j.j.z.z.z.j.j.h.j.j.k.z.z.j.x.h.z.z.z.z.z.z.z.z.j.",
"j.z.x.j.F.iXzX0X5XlXsXcX=XiX5X7XcX6XlXzX3Xz.z.z.z.z.z.j.j.z.h.h.z.h.z.j.h.h.h.z.h.h.h.j.j.h.j.j.x.j.h.h.z.h.h.z.h.z.h.h.z.h.z.z.",
"j.j.z.A.5X&X-XpX=X=XpX7XpX5X*XpXiX*X-X7X6Xz.j.z.j.z.j.j.h.j.j.z.h.z.h.h.h.h.h.h.h.h.h.h.h.h.h.j.h.h.h.h.h.h.h.h.h.z.h.h.h.h.h.h.",
"h.h.j.c.M.z.M.x.c.j.x.n.z.c.z.x.j.x.z.z.n.j.j.j.j.j.h.j.j.h.h.h.h.h.h.h.h.h.h.h.h.h.h.h.h.h.h.z.h.h.h.h.h.h.h.h.h.h.h.h.h.h.h.h.",
"h.h.j.j.h.h.h.h.k.h.j.z.h.h.k.x.h.h.h.h.h.h.h.h.h.h.h.h.h.h.h.h.h.h.h.h.h.h.h.j.h.h.h.n.h.h.h.h.h.h.h.h.h.h.h.h.h.h.h.h.h.h.h.h.",
"h.h.h.h.h.h.h.h.h.h.h.h.h.h.h.h.h.h.h.h.h.h.h.h.h.h.h.h.h.h.h.h.h.h.h.h.h.h.h.z.F.3X3Xv.h.h.h.h.h.h.h.h.h.h.h.h.h.h.h.h.h.h.h.h.",
"h.h.h.h.h.h.h.h.h.h.h.h.h.h.h.h.h.h.h.h.h.h.h.h.h.h.h.h.h.h.h.h.h.h.h.h.h.h.k.G.iXzXxXvXM.h.h.h.h.h.h.h.h.h.h.h.h.h.h.h.h.h.h.h.",
"h.h.h.h.h.h.h.h.h.h.h.h.h.h.h.h.h.h.h.h.h.h.h.h.h.h.h.h.h.h.h.h.h.h.h.n.h.G.vX5XiXcXlXxXR.h.h.h.h.h.h.h.h.h.h.h.h.h.h.h.h.h.h.h.",
"h.h.h.h.h.h.h.h.h.h.h.h.h.h.h.h.h.h.h.h.h.h.h.h.h.h.h.h.h.h.h.h.h.h.k.G.3X6XzXlX5X=X5X6XD.j.h.h.h.h.h.h.h.h.h.h.h.h.h.h.h.h.h.h.",
"h.h.h.h.h.h.h.h.h.h.h.h.h.h.h.h.h.h.h.h.h.h.h.h.h.h.h.h.h.h.h.h.h.h.G.sXzX5X7XaX*XiX0XxXvX3Xh.n.h.h.h.h.h.h.h.h.h.h.h.h.h.h.h.h.",
"h.h.h.h.h.h.h.h.h.h.h.h.h.h.h.h.h.h.h.h.h.h.h.h.h.h.h.h.h.h.h.h.h.M.5X7XfX5X5X7X*XiXcXxXlX0Xn.G.h.h.h.h.h.h.h.h.h.h.h.h.h.h.h.h.",
"h.h.h.h.h.h.h.h.h.h.h.h.h.h.h.h.h.h.h.h.h.h.h.h.h.h.h.h.h.h.h.h.h.G.lX0XaX-XlXaX7X-XsX6XlXcX5XzXlXc.h.h.h.h.h.h.h.h.h.h.h.h.h.h.",
"h.h.h.h.h.h.h.h.h.h.h.h.h.h.h.h.h.h.h.h.h.h.h.h.h.h.h.h.h.h.h.h.D.8X=XpXiX=XpXsXaXsX&X-XsX;X&XpXaX3Xh.h.h.h.h.h.h.h.h.h.h.h.h.h.",
"h.h.h.h.h.h.h.h.h.h.h.h.h.h.h.h.h.h.h.h.h.h.h.h.h.h.h.h.h.h.h.h.S.S.S.S.S.S.S.S.S.S.S.S.S.S.S.S.S.S.h.h.h.h.h.h.h.h.h.h.h.h.h.h.",
"h.h.h.h.h.h.h.h.h.h.h.h.h.h.h.h.h.h.h.h.h.h.h.h.h.h.h.h.h.h.h.h.h.h.h.h.h.h.h.h.h.h.h.h.h.h.h.h.h.h.h.h.h.h.h.h.h.h.h.h.h.h.h.h.",
"h.h.h.h.h.h.h.h.h.h.h.h.h.h.h.h.h.h.h.h.h.h.h.h.h.h.h.h.h.h.h.h.h.h.h.h.h.h.h.h.h.h.h.h.h.h.h.h.h.h.h.h.h.h.h.h.h.h.h.h.h.h.h.h.",
"h.h.h.h.h.h.h.h.h.h.h.h.h.h.h.h.h.h.h.h.h.h.h.h.h.h.h.h.h.h.h.h.h.h.h.h.h.h.h.h.h.h.h.h.h.h.h.h.h.h.h.h.h.h.h.h.h.h.h.h.h.h.h.h.",
"h.h.h.h.h.h.h.h.h.h.h.h.h.h.h.h.h.h.h.h.h.h.h.h.h.h.h.h.h.h.h.h.h.h.h.h.h.h.h.h.h.h.h.h.h.h.h.h.h.h.h.h.h.h.h.h.h.h.h.h.h.h.h.h.",
"h.h.h.h.h.h.h.h.h.h.h.h.h.h.n.n.h.h.n.h.h.h.h.h.h.h.h.h.h.h.h.h.h.h.h.h.h.h.h.h.h.h.h.h.h.h.h.h.h.h.h.h.h.h.h.h.h.h.h.h.h.h.h.h.",
"h.h.h.h.h.h.h.h.h.h.h.h.h.0.t.` ' 8 &.T ~ r.u ( C.h.h.h.h.h.h.h.h.h.h.h.h.h.h.h.h.h.h.h.h.h.h.h.h.h.h.h.h.h.h.h.h.h.h.h.h.h.h.h.",
"h.h.h.h.h.h.h.h.h.h.h.l.1 E / ) ^ 5 q _ ` ! ~ T %.h.h.h.h.h.h.h.h.h.h.h.h.h.h.h.h.h.h.h.h.h.h.h.h.h.h.h.h.h.h.h.h.h.h.h.h.h.h.h.",
"h.h.h.h.k.( y.t.l.h.h.#.  / q.~ E . R 0./ ! w.E 4 b.h.h.h.h.h.h.h.h.h.h.h.h.h.h.h.h.h.h.h.h.h.h.h.h.h.h.h.h.h.h.h.h.h.h.h.h.h.h.",
"h.h.h.l.q T y.Q q k.j.@.X + X o 1 . E W Q ( ( . 8 6 b.h.h.h.h.h.h.h.h.h.h.h.h.h.h.h.h.h.h.h.h.h.h.h.h.h.h.h.h.h.h.h.h.h.h.h.h.h.",
"h.h.h.=.& o R Q ` $.$.$.: X * - ; 2 T X 2 7 T . 5 q q.t.k.h.h.h.h.h.h.h.h.h.h.h.h.h.h.h.h.h.h.h.h.h.h.h.h.h.h.h.h.h.h.h.h.h.h.h.",
"h.h.h.l., o o o . O < < < * q 0.W < < < = X X 4 8 ( f.R 0.h.h.h.h.h.h.h.h.h.h.h.h.h.h.h.h.h.h.h.h.h.h.h.h.h.h.h.h.h.h.h.h.h.h.h.",
"h.h.h.h.&.* < ; 8 y./ R o 7 O X X e < < - - 1 = ~ _ ( O e h.h.h.h.h.h.h.h.h.h.h.h.h.h.h.h.h.h.h.h.h.h.h.h.h.h.h.h.h.h.h.h.h.h.h.",
"h.h.h.h.k.9 3 O 5 E w.R _ + O 2 . y 4 o / $.e < * 2 O 1 @.j.j.h.h.h.h.h.h.h.h.h.h.h.h.h.h.h.h.h.h.h.h.h.h.n.m.N.N.m.n.h.h.h.h.h.",
"h.n.M.M.0 & 1 X T o T R o o i.^ O 7 t T T E _ Q 5 = = , C.h.h.h.h.h.h.h.h.h.h.h.h.h.h.h.h.h.h.h.m.m.K.I.K.J.W.J.W.E.U.K.K.J.n.n.",
"U.E.J.Y.r., + ^ @   6 _ 6 2 w.! T + e.) $.' T E R O & @.h.h.h.h.h.h.h.h.h.h.h.h.h.h.h.h.h.N.m.N.I.N.K.W.E.W.~.W.W.W.W.E.Q.Y.J.J.",
"~.I.~.q.o O Q W @ = 6 T o 0 ~ R ` O Q E   T Q Q + 1 & =.n.h.h.h.h.h.h.h.h.h.h.h.n.n.M.K.J.I.Q.~.~.~.~.~.~.~.~.~.~.~.~.~.~.~.~.~.",
"~.~.~.%.O o o R y *   o . ,.' X + 2 T o . E + 5 @.&.Z.L.V.K.m.m.B.K.N.m.N.B.B.m.m.J.I.E.Q.~.~.~.~.~.~.~.~.~.~.~.~.~.~.~.~.~.~.~.",
"~.~.~.P.1 . ` E W = ; . &   .   . O 5 0.. . 2 0 0 e.e.w./ L.E.J.~.J.E.E.K.Q.I.E.E.K.W.Y.E.~.~.~.~.~.~.~.~.~.~.~.~.~.~.~.~.~.~.~.",
"~.~.~.~.Z.: o o + w 0 > , & . = ; O O 2 2 = ; 1 - W Q ^ y.~ ~.E.B.E.W.Q.E.E.U.Q.~.W.Q.~.~.~.~.~.~.~.~.~.~.~.~.~.~.~.~.~.~.~.~.~.",
"~.~.~.~.).P.3 4 0 q.9 1 r., = ; & = . * ; & : * - X o / ! O Z.~.~.~.~.W.U.~.)./.Y.~.~.~.~.~.~.~.~.~.~.~.~.~.~.~.~.~.~.~.~.~.~.~.",
"~.~.~.~.~.~.~.~.Z.~.!.q.: r.; 0 %.& & ; ; 9 %.* 4 O * < . 3 !.~.~.~.~.~.~.~.~.d.d :.>.R.~.~.Q.(.>.d ;.$X~.~.~.~.~.~.~.~.~.~.~.~.",
"~.~.~.~.~.~.~.~.~.~.~.~.P.& & * : & & P.~.P.q.~.P.0 w ; %.P.~.~.~.~.).).~.~.(.4.5.;.5.H.~.~.Q.].5.4.5.>.~.~.~.~.~.~.~.~.~.~.~.~.",
"~.~.~.~.~.~.~.~.~.~.~.~.).P.#.> ; ; P.~.~.~.P.e.e.~.~.~.).~.~.~.~.~.~.R.3.;.z 9.s 9.;.>.$X>.p 7.-.8.6.:.H.~.~.~.~.~.~.~.~.~.~.~.",
"~.~.~.~.~.~.~.~.~.~.~.~.~.~.~.w ; * w ~.~.~.~.~.~.~.~.~.~.~.~.~.~.~.~.$X>.4.5.7.4.:.9.].>.6.4.9.4.;.9.<.R.~.~.~.~.~.~.~.~.~.~.~.",
"~.~.~.~.~.~.~.~.~.~.~.~.~.~.~.!.w & & ; Z.Q.~.~.~.~.~.~.~.~.~.~.~.~.(.;.s XXs b $ 7 u s a 8.6.6.r t 7 ].>.,.R.~.~.~.~.~.~.~.~.~.",
"~.~.~.~.~.~.~.~.~.~.~.~.~.~.~.~.a.& & & : P.~.~.~.~.~.~.~.~.~.~.~.~.).,.XXd >.n y.u 5.s 7.9.s 6.i u.a.4.5.8.3.~.~.~.~.~.~.~.~.~.",
"~.~.~.~.~.~.~.~.~.~.~.~.~.~.~.~.T., & & & P.~.~.~.~.~.~.~.~.~.~.~.~.).~.' t r a.$ p d XXz % r p.) # A 7.6.d 9.R.~.~.~.~.~.~.~.~.",
"~.~.~.~.~.~.~.~.~.~.~.~.~.~.~.~.~.9 & & & q.~.~.~.~.~.~.~.~.~.).).).9X9X' s.p.`.d.A XX:.i n i.u.`.' ).i.i i $X~.~.~.~.~.~.~.~.~.",
"/./././././././././././././././.a.4 > > > 0 Q.9X_./././._.9X_.qX9X9XxX9X' ' $ wXqXs.u A r $ $ ' _.g./.p.g.u.!.!././././././././.",
"+.o.} O.o.O.| o.O.} o.O.{ O.O.{ +.o.} O.OXNXyXmXnXyXyXyXyXyXyXyXtXtX#X#X+XtX#XtXkXnXnXNX{ O.+.} +.O.| O.O.O.| o.O.} O.+.[ +.+.{ ",
"G G Z v G [ M [ [ b [ G n G G N v G C v @X.X X].%X>X>X>X>X>X>X<X>X>X>X>X>X>X>X>X X,XrX>Xn [ G N G G Z v v { b [ [ b [ G n U G N ",
"} 1.c [ 1.h [ { h G | l G | l I | N c [ oXgXMXeXjXkXMXMXMXnXkXkXkXyXtXtXtXuXyXnXrXnXmXnXH | l v } N x [ 1.c [ { h G | l H | l v ",
"c M U c M G x m C x I V Y c n U c n U c N ,.3.'. X{.{.[.[.[.[.{.XX}.[.[.[.[.[.{.|.%X[.XX{ v n U c n U c M G x m C x P V Y x M U ",
"g K P j L I l L F l F F l H K M g F m j oXjXjXgXjXdXmXmXmXmXmXmXkXkXtXtXtXuXkXmXeXmXmXmXb g H n g K P j L I l L F l F F k x F M ",
"m h <.P h 1.n V b n m k <.m h <.m h n x n '.|.'.}.}.{.{.[.[.{.{.{.[.[.[.[.[.XX{..X%X{.}.n C h n P h <.P h 1.n V b n m k <.m h <.",
" .M J J P J J F H J ] m J  .M J  .N D OXoX#XOXMXuXOX+XoXOXOXoX+XOXoXOXOXoXOXOXoXuX#XOXoX#X] N ]  .N J J P J J F H J ] m J  .N J ",
"P <.V B n m k B N h I n j P <.h C n h  X X%XrX%XgXdXdXdXdXdXdXdXhXhXhXhXhXhXhXhXrXhXhXhXjX7.n h P <.h m n m k B N h P n j P <.h ",
"J J I L D K P S  .m S  .M S  .B D ] Y J S K Z '.@XB S ] B L J P D D I L S L P S '.@XS  .N S  .B J J I L D K P S  .m S  .M S  .B ",
"b k M M b M n l N n k M n k N n b b n N b n M rXoXn l N l k N <.V b <.M b B b k eXoXh N n b M <.M k M M k M n l N n k N <.k N n ",
"..B ....P  ...F K .. .P  ...B ....B ....v ] ..eX#X.. .C ....B ....B ....P J ..K eXOX] C ....B ....B ....P  ...K K .. .m ....N .."
};
