/* XPM */
static char *result[] = {
/* columns rows colors chars-per-pixel */
"64 64 241 2 ",
"   c #11583C",
".  c #14563D",
"X  c #0F5C3A",
"o  c #26573C",
"O  c #33553D",
"+  c #007D2A",
"@  c #04742E",
"#  c #1A762B",
"$  c #0B6436",
"%  c #0A6737",
"&  c #1A6935",
"*  c #047935",
"=  c #19773A",
"-  c #27782C",
";  c #256A35",
":  c #316F35",
">  c #4E533C",
",  c #774D38",
"<  c #2E1B5B",
"1  c #321D59",
"2  c #1E3C4A",
"3  c #22334E",
"4  c #273A4C",
"5  c #292555",
"6  c #262C52",
"7  c #2A2959",
"8  c #2F2C57",
"9  c #283466",
"0  c #303367",
"q  c #543755",
"w  c #1A4545",
"e  c #164C42",
"r  c #1A4849",
"t  c #16534D",
"y  c #274847",
"u  c #2E504C",
"i  c #067B48",
"p  c #077B55",
"a  c #177345",
"s  c #2E7453",
"d  c #1C4F72",
"f  c #2E4F73",
"g  c #0F786F",
"h  c #326D72",
"j  c #6E524A",
"k  c #547870",
"l  c #6A6A6E",
"z  c #5C5E50",
"x  c #BA791E",
"c  c #894C33",
"v  c #8C5332",
"b  c #93562F",
"n  c #8F6D2F",
"m  c #AA7325",
"M  c #A15928",
"N  c #B7605F",
"B  c #A57650",
"V  c #AA5B6C",
"C  c #A7596A",
"Z  c #AB5E73",
"A  c #A45B76",
"S  c #9B6771",
"D  c #BB6B6B",
"F  c #B76567",
"G  c #BC746F",
"H  c #AD6375",
"J  c #AC647D",
"K  c #BD6D74",
"L  c #B46A7A",
"P  c #B56877",
"I  c #BD7076",
"U  c #BC747B",
"Y  c #8E6960",
"T  c #D6785D",
"R  c #CE776B",
"E  c #C57A6E",
"W  c #C7766C",
"Q  c #DA7E62",
"!  c #D27A6A",
"~  c #C57473",
"^  c #CB7C73",
"/  c #C47774",
"(  c #C06F74",
")  c #19941B",
"_  c #2D971C",
"`  c #36A915",
"'  c #30B10F",
"]  c #1B8425",
"[  c #018537",
"{  c #00802F",
"}  c #329225",
"|  c #2EA023",
" . c #45B411",
".. c #428C26",
"X. c #73901F",
"o. c #3AC408",
"O. c #4FD104",
"+. c #61DD01",
"@. c #008C44",
"#. c #048747",
"$. c #00934D",
"%. c #06895B",
"&. c #009653",
"*. c #02995A",
"=. c #168951",
"-. c #2C8C58",
";. c #2AAA4F",
":. c #049769",
">. c #0B8F6E",
",. c #32906E",
"<. c #00A164",
"1. c #00A56C",
"2. c #00AA73",
"3. c #01AA78",
"4. c #00B27F",
"5. c #30A274",
"6. c #51877E",
"7. c #608566",
"8. c #3BC47B",
"9. c #BA8C1E",
"0. c #BC941D",
"q. c #948824",
"w. c #A78725",
"e. c #B38C29",
"r. c #9CB213",
"t. c #C78C18",
"y. c #C79918",
"u. c #D19415",
"i. c #DDB60E",
"p. c #CAA416",
"a. c #D9B611",
"s. c #D8AB11",
"d. c #E3B30C",
"f. c #C49726",
"g. c #E5C70B",
"h. c #A99447",
"j. c #9C9760",
"k. c #DE8366",
"l. c #CC8373",
"z. c #C8837B",
"x. c #D38C7A",
"c. c #CE9079",
"v. c #E28564",
"b. c #E98961",
"n. c #E89771",
"m. c #E99D73",
"M. c #E49C77",
"N. c #E9A074",
"B. c #244D84",
"V. c #326D90",
"C. c #1C6BA8",
"Z. c #266EAA",
"A. c #1B6496",
"S. c #536F82",
"D. c #657B88",
"F. c #1A7CC7",
"G. c #A96381",
"H. c #AF7081",
"J. c #B57780",
"K. c #098E90",
"L. c #2D948F",
"P. c #00B888",
"I. c #03BC96",
"U. c #03AA8C",
"Y. c #108FAB",
"T. c #0CAEAB",
"R. c #37B3B7",
"E. c #389E9A",
"W. c #55878C",
"Q. c #6D8C90",
"!. c #4A93A6",
"~. c #6B8BA4",
"^. c #74ADA7",
"/. c #61B6A8",
"(. c #00C299",
"). c #37C48D",
"_. c #5FC5BC",
"`. c #158ED1",
"'. c #179CFF",
"]. c #1D9CFF",
"[. c #1796F3",
"{. c #1793E8",
"}. c #239BFF",
"|. c #2B9BFF",
" X c #339AFF",
".X c #3B9AFF",
"XX c #1EA5FF",
"oX c #11A4E0",
"OX c #25ADFF",
"+X c #26A2FE",
"@X c #2DB7FF",
"#X c #38B0FB",
"$X c #2EA4D7",
"%X c #4F9EF1",
"&X c #59A8F5",
"*X c #4DAAF8",
"=X c #65AAF4",
"-X c #66B6FB",
";X c #74B0F5",
":X c #5D9FD9",
">X c #3DCAFF",
",X c #39C5FF",
"<X c #3EC3D2",
"1X c #4DCACD",
"2X c #66D0D6",
"3X c #44D3FF",
"4X c #4CDEFF",
"5X c #4ECAE4",
"6X c #6AD1ED",
"7X c #52E4FF",
"8X c #5AEEFF",
"9X c #56E9FF",
"0X c #5FF4FF",
"qX c #53E2F5",
"wX c #64EFF9",
"eX c #61ECF6",
"rX c #64E3E9",
"tX c #979A9E",
"yX c #8AA6E4",
"uX c #9AB4E9",
"iX c #94ACEC",
"pX c #A6BAED",
"aX c #B5BCF2",
"sX c #A8B1EF",
"dX c #AF88C7",
"fX c #C1BDF6",
"gX c #94CBF8",
"hX c #A9C4ED",
"jX c #ADC7F2",
"kX c #B7C8F3",
"lX c #A9DAF8",
"zX c #B7D6F4",
"xX c #B2D1EF",
"cX c #BDE8F5",
"vX c #C5DDF6",
"bX c #C8D6F8",
"nX c #CFCDFA",
"mX c #C4E4F5",
"MX c #C7EAF5",
"NX c #D7F2F8",
"BX c #D2EBF7",
/* pixels */
".X.X.X.X.X.X.X.X.X.X.X.X.X.X.X.X.X.X.X.X.X.X.X.X.X.X.X.X.X.X.X.X.X.X.X.X.X.X.X.X.X.X.X.X.X.X.X.X.X.X.X.X.X.X.X.X.X.X.X.X.X.X.X.X",
".X.X.X.X.X.X.X.X.X.X.X.X.X.X.X.X.X.X.X.X.X.X.X.X.X.X.X.X.X.X.X.X.X.X.X.X.X.X.X.X.X.X.X.X.X.X.X.X.X.X.X.X.X.X.X.X.X.X.X.X.X.X.X.X",
".X.X.X.X.X.X.X.X.X.X.X.X.X.X.X.X.X.X.X.X.X.X.X.X.X.X.X.X.X.X.X.X.X.X.X.X.X.X.X.X.X.X.X.X.X.X.X.X.X.X.X.X.X.X.X.X.X.X.X.X.X.X.X.X",
".X.X.X.X.X.X.X.X.X.X.X.X*X-XiX&X.X.X.X.X.X.X.X.X.X.X.X.X.X.X.X.X.X.X.X.X.X.X.X.X.X.X.X.X.X.X.X.X.X.X.X.X.X.X.X.X.X.X.X.X.X.X.X.X",
".X.X.X.X.X.X.X.X.X.X%X=XaXBXNXNXlX.X.X.X.X.X.X.X.X.X.X.X.X.X.X.X.X.X.X.X.X.X.X.X.X.X.X.X.X.X.X.X.X.X.X.X.X.X.X.X.X.X.X.X.X.X.X.X",
".X.X.X.X.X.X.X.X.X X%XyXnXcXcXmXNX&X.X.X.X.X.X.X.X.X.X.X.X.X.X.X.X.X.X.X.X.X.X.X.X.X.X.X.X.X.X.X.X.X.X.X.X.X.X.X.X.X.X.X.X.X.X.X",
".X.X.X.X.X.X.X.X=XvXBXuXnXMXmXmXBXlX.X.X.X.X.X.X.X.X.X.X.X.X.X.X.X.X.X.X.X.X.X.X.X.X.X.X.X.X.X.X.X.X.X.X.X.X.X.X.X.X.X.X.X.X.X.X",
".X.X.X.X.X.X-X-XsXcXBXjXkXjXpXaXxX*X.X.X.X.X.X.X.X.X.X.X.X.X.X.X.X.X.X.X.X.X.X.X.X.X.X.X.X.X.X.X.X.X.X.X.X.X.X.X.X.X.X.X.X.X.X.X",
".X.X.X.X.XiXBXzXkXmXcXBXhXyXfXNXmXlX&X.X.X.X.X.X.X.X.X.X.X.X.X.X.X.X.X.X.X.X.X X X|.|. X X X|.|. X X|..X.X.X X%X.X.X.X.X.X.X.X.X",
"|.|..X.X&XkXvXMXhXkXbXvX;XfXmXvXMXNXNX.X.X.X.X.X.X.X.X.X X X X X X}.|.}.}.}.|.|.}.}.].}.].].|.].}.].}.}.|.}.|.|.}.|.}.}.}.}.|.|.",
"[.|.}.|.=XkXkXbXxXyXzXaXyXnXMXBXMXmXNX=X.X.X|.}.|.|.|.|.|.}.}.}.].}.].].].}.}.].].}.}.}.'.}.].].}.'.}.}.].*X6X&X|.}.].}.}.}.}.].",
"].}.|.&XbXmXBXMXiXbXvXBXuXaXvXbXbXmXMXgXgXNXgX+X}.].}.].].}.'.'.}.'.].].'.'.'.}.'.'.'.].'.'.].].|.].'.].-XhXzXzX'.].'.'.].'.}.}.",
"].].].;XbXcXcXbXaXmXbXvXMXpXnXkXsXzXBXpXvXMXcXlX}.}.].].'.].].].'.}.'.'.'.'.'.'.'.'.'.].'.'.'.].'.'.}.jXxXxXjXmX-X}.].'.'.'.].'.",
"].'.=XkXpXkXbXnXsXkXbXvXbXbXxXyXkXbXnXyXpXbXvXvX.X'.'.].'.'.'.'.'.'.'.'.'.'.'.'.'.'.'.'.'.'.'.].'.'.;XMXxXvXxXzXzXzX#X'.'.'.'.'.",
"'.|.=X-X&X%X=X=X%X%X=X=X=X=X=X:X=X=X=X&X%X=X=X&X#X'.'.'.'.'.'.'.'.'.'.'.'.'.'.'.'.'.'.'.'.'.'.'.'.+X*X&X&X&X&X&X&X&X.X'.'.'.'.'.",
"'.'.'.].'.'.'.'.].].'.'.'.'.].].'.'.'.'.'.'.'.'.'.'.'.'.'.'.'.'.'.'.'.'.'.'.'.'.'.'.'.'.'.'.'.'.'.'.'.'.'.'.'.'.'.'.'.'.'.'.'.'.",
"'.'.'.'.'.'.'.'.'.'.'.'.'.'.'.'.'.'.'.'.'.'.'.'.'.'.'.'.'.'.'.'.'.'.'.'.'.'.'.'.'.'.'.'.'.'.'.'.'.'.'.'.'.'.'.'.'.'.'.'.'.'.'.'.",
"'.'.'.'.'.'.'.'.'.'.'.'.'.'.'.'.'.'.'.'.'.'.'.'.'.'.'.'.'.'.'.'.'.'.'.'.'.'.'.'.'.'.'.'.'.'.'.'.'.'.'.'.'.'.'.'.'.'.'.'.'.'.'.'.",
"'.'.'.'.'.'.'.'.'.'.'.'.'.'.'.'.'.'.'.'.'.'.'.'.'.'.'.'.'.'.'.'.'.'.'.'.'.'.'.'.'.'.'.'.'.'.'.'.'.'.'.'.'.'.'.'.'.'.'.'.'.'.'.'.",
"'.'.'.'.'.'.'.'.'.'.'.'.'.'.'.'.'.'.'.'.'.'.'.'.'.'.'.'.'.'.'.'.'.'.'.'.'.'.'.'.'.'.'.'.'.'.'.'.'.'.'.'.'.'.'.'.'.'.'.'.'.'.'.'.",
"'.'.'.'.'.'.'.'.'.'.'.'.'.'.'.oXoX%X:X`.`.K.Y.'.`.K.[.'.'.'.'.'.'.'.'.'.'.'.'.'.'.'.'.'.'.'.'.'.'.'.'.'.'.'.'.'.'.'.'.'.'.'.'.'.",
"'.'.'.'.'.'.'.'.'.'.'.'.`.g #.(.@.=.a t t %.* i dXk @ Y.'.'.'.'.'.'.'.'.'.'.'.'.'.'.'.'.'.'.'.'.'.'.'.'.'.'.'.'.'.'.'.'.'.'.'.'.",
"'.'.].'.].].'.'.'.'.'.].r p [ <.,.,.* g :.:.2.3.@ $.s V.'.'.'.'.'.'.'.'.'.'.'.'.'.'.'.'.'.'.'.'.'.'.'.'.'.'.'.'.'.'.'.'.'.'.'.'.",
"'.'.[.{.g W.K.oX'.'.'.C.w i 2.W.=.&.$ $ %.3.2.[ P.P.# 0 $X'.'.'.'.'.'.'.'.'.'.'.'.'.'.'.'.'.'.'.'.'.'.'.'.'.'.'.'.'.'.'.'.'.'.'.",
"'.'.[.%.*.6.<.:.{.'.'.C.% p { + @ X 3 + &.$.[ <.T.%.e k S.`.'.'.'.'.'.'.'.&XjXcXlX#X'.'.'.'.'.'.'.'.'.'.'.'.'.'.'.'.'.'.'.'.'.'.",
"'.'.9 r + =.@.P.%.'.C.F.2 @ @ 3 e 5 t p + + * D.>.@   $ p D.`.oX'.'.'.+X-XuXvXcXMXlX'.'.'.'.'.'.'.'.'.'.'.'.'.'.'.'.'.'.'.'.'.'.",
"'.'.9 w + + { :.a C.i %.6 e . 3 d g 6 $ + $ 2   + + 2 + K.3.U.>.'.'.].hXBXhXnXzXzXlX'.'.'.'.'.'.'.'.'.'.'.'.'.'.'.'.'.'.'.'.'.'.",
"'.'.F.2 @ + @ . $ a e 2 % e r >.3.[ * t 5 w 3 % $ 4 u ,.>.U.:.%.g zXlXzXcXMXiXaXmXlX*X].'.'.'.'.'.'.'.'.'.'.'.'.'.'.'.'.'.'.'.'.",
"'.'.[.B.3 2 5 y D.,.2.$.+ { l a + + r t t t . 6 3   6 i *.2.p $ f kXmXhXjXxXsXvXvXMXBX].'.XX'.'.'.'.'.'.'.'.'.'.'.'.'.'.'.'.'.'.",
"'.'.'.F.d d $ + =.*.(.&.<.@.= e r $ r z + { :.K.A.r 3 6   a e 2 k MXvXuXmXvXuXvXBXmXMX6XgX-X'.'.'.'.'.'.'.'.'.'.'.'.'.'.'.'.'.'.",
"'.'.{.9 < w + { #.+ #.$.[ + =.tX= e = 6.* { + @ (.&.2.p 5 2 2 < bXmXvXkXvXvXzXaXaXxXmXhXcXMX-X'.'.'.'.'.'.'.'.'.'.'.'.'.'.'.'.'.",
"'.'.{.7 < . @ a { @ * $.@.$ [ Y.3.$.{ 6.=.6.>.-.[ { [ [ X 5 7 ~.uXhXaXiXhXkXkXhXiXkXaXyXpXxXgX'.'.'.'.'.'.'.'.'.'.'.'.'.'.'.'.'.",
"'.'.A.g 4 $.#.s e 6 %.&.@.2 >.2.[ 2.{ 1.I.%.%.h @.2.1.[   2 < C.}.].].].].].XX].XX].].].+X].].'.'.'.'.'.'.'.'.'.'.'.'.'.'.'.'.'.",
"'.C.@ + { $.3.a & 3 $ @ @ y k a [ 4.t X + @ w + :.+ * #.t < B.XX'.].'.'.].'.'.'.'.'.'.'.'.'.'.'.'.'.'.'.'.'.'.'.'.'.'.'.'.'.'.'.",
"'.C.4 + + + + 5.8 X $ + @ 0 k -.{ { X $ + + . %.{ p i d d C.'.Y.'.'.'.'.'.'.'.'.'.'.'.'.'.'.'.'.'.'.'.'.'.'.'.'.'.'.'.'.'.'.'.'.",
"'.'.d r % 4.&.&.i < 7 $ 7 4 @ r $ . e @ %.Y.t w % d 9 9 C.Y.(.P.%.{.'.'.'.'.'.'.'.'.'.'.'.'.'.'.'.'.'.'.'.'.'.'.'.'.'.'.'.'.'.'.",
"'.'.{.d 4 { @.+ @ C.B.< 1 1 4 e w 6 @ + p i e 3 % 7 g d @.2.&.Q.Q.p '.'.'.'.'.'.'.'.'.'.'.'.'.'.'.'.'.'.'.XXOX@X@XOXXX'.'.'.'.'.",
"XXXXXXOXd     a h f < 7 Z.0 6   5 < 6 w % 7 r < < < 2 5 + + [ &.:.i F.].'.'.'.'.'.'.'.'.'.'.'.].OXOX,X3X,X>X8X,X9X7X4X,X,X>XXXXX",
"4X4X>X4X#XE.!.A.V.3XA.6 d $X5 < V.f < 6 2 7 < 7 . 5 w . e + [ &.@.+ A.].'.'.'.'.'.'.'.].'.@XOXOX3X@X>X9X4X0X0X9X9X7X9X7X0X3X>X>X",
"0X3X0X8X7X9X4X0X0X0X8X3Xf h V.< 2 <X5 < < 9 f f C.C.f f   6 r e w 9 '.'.'.'.'.'.'.OXXX>X>X3XwX0X0X0X0X0X0X0X0X0X0X0X0X0X0X0X0X0X",
"0X0X0X8X7X0X0X0X0X0X0X0XqXh 7 < 2 d 1 < 6 <XqX3XL.R.9X>X9 L.2 6 Z.$X@X@X,X,X@XOXOX>X3X7X8X0X0X0X0X0X0X0X0X0X0X0X0X0X0X0X0X0X0X0X",
"0X0X0X0X0X0X0X0X0X0X0X0X0X0X,.9 1 1 1 d qX0XwX7XqXT.>.-.5XtX^.^.0X3X_.^.Q.2X3X4X7X>X8X3X9X8X2XrXrX0X0X0X0X0X0X0X0X0X0X0X0X0X0X0X",
"0X0X0X0X0X0X0X0X0X0X0X0X0X0X0X5X. 1 5 y 5XeXeXeXtX2X2XrXh.d.u.u.Q.^.u.g.g.9.j.e.^.7XrXh.j.w.y.f.y._.0X0X0X0X0X0X0X0X0X0X0X0X0X0X",
"0X0X0X0X0X0X0X0X0X0X0X0X0X0XrXe.9.u., 1 > f.e.t.p.d.u.j.s.t.i.i.x x d.M M i.m t.m j.0.s.0.i.u.n t.s.h.j.0X0X0X0X0X0X0X0X0X0X0X0X",
"0X0X0X0X0X0X0X0X0X0X0X0X0X0Xh.i.0.y.m v y.a.9.s.t.c 9.u.t.d.c m g.m s.b b t.i.0.i.9.y.9.c m p.M d.d.t.d.j.0X0X0X0X0X0X0X0X0X0X0X",
"0X0X0X0X0X0X0X0X0X0X0X0X0X8XB p.c x d.9.f.m v w.9.b d.y.n p.v v d.c n i.a.t.9.v x y.m p.n 0.0.M d.c c y.j.0X0X0X0X0X0X0X0X0X0X0X",
"0X0X0X0X0X0X0X0X0X0X0X0X0X0Xj 0.9.y.0., n p.9.0.w.b s.b , m p.g.v p.b O > 0.y., 0.s.c n w.m q j a.e.m p.e.0X0X0X0X0X0X0X0X0X0X0X",
"0X0X0X0X0X0X0X0X0X0X0X0X0X0XrXl n w.a.c v q., n q > w.p.0., O j O ' X.o , q w.p.w.> r.0 ; s !.;.l e.w.j 2X0X0X0X0X0X0X0X0X0X0X0X",
"0X0X0X0X0X0X0X0X0X0X0X0X0X1X).eXo W.n r.X.1 - # V.8.l X. .> o 5.s ' - o X.r.y : !.- O.s # O.y -.R.u ,.2X0X0X0X0X0X0X0X0X0X0X0X0X",
"0X0X0X0X0X0X0X0X0X0X0X0X0XR.+.| . E.2 } O.w ] O.y ;.E.t ' _ o ` . # u o ] ' & & | . | y = ] ` ` ' o ).0X0X0X0X0X0X0X0X0X0X0X0X0X",
"0X0X0X0X0X0X0X0X0X0X0X0X0X0X5.o o O.# o - 6 # ) o.' ' u # o o ] O.) # o X ` O # } _ _.s &  .' ] : 4 ).;.| 0X0X0X0X0X0X0X0X0X0X0X",
"0X0X0X0X0X0X0X0X0X0X0X0X0X8X1Xh o ' O ; w o # ..] # : y _ ] o : ] O.} O - - y # ` ' ` u ; ..4 -._.V.# +.;.0X0X0X0X0X0X0X0X0X0X0X",
"wXwXwXwXwXwXwXwXwXwXeXeX0X1X' : u y 4 -  .u : ..8 - y y O...u ..8 ; s u & _ O : y : ` u : ,.k ) ..f ,.E.wXwXeXwXwXwXwXwXwXwXwXwX",
"m.m.x.M.n.M.c.n.N.x.m.m.l.m.N.x.N.n.x.n.n.M.x.n.m.x.m.N.z.m.m.z.m.n.x.m.n.M.x.m.m.x.N.N.z.m.m.z.N.N.c.M.m.m.c.c.m.x.m.m.x.N.N.z.",
"E E U G ^ z.H l.l.H l.E H l.! L E E U G E l.J l.l.H l.E G.^ E L E E / G l.z.H z.^ H x.R J ^ E H.l.l.U G E l.H l.l.H l.E J ^ E H.",
"l.H.D l.U V E z.C ^ c.A W c.A G c.H.F l.U V ^ / C ^ x.A R x.A D x.H.F l.U V ^ z.C ^ c.A W c.A D k.L F l.J.C l.z.C ^ c.A E l.A W ",
"F J ^ F L W D K I D W J ~ F H ^ F G.^ F P ^ P ( I F ( L W ( G.^ F J ^ F P ^ D K ( ( ( P ~ ( J l.F H ^ F W.Y.%.j.U D / H.~ ( Z ^ ",
"N ! K V R ~ C ! R A R R A W R L N ! ( V ! ~ C ! W C R ! V ( ! L N ! K C R ~ C R R C R R Z N E H.N R k >.:XI.h ~.-.I.L.j.A ( R L ",
"( C G.( V G.J P H J K Z G.( A G.~ V G.I V G.P P H G.( Z G.K V G.( C G.K V L J H G.G.( Z G.( V G.7.dXE.R.P.&.L.T.:.>.U.~.l ( V G.",
"v.L Q v.( Q Q R W Q k.K Q v.L T Q H.Q Q ( Q Q R R Q Q K Q Q L T v.P k.v.I Q Q R R Q Q ( Q Q A > { { $.$.:.&.'.I.#.W.K.-.,.Q P Q ",
"( G.F L L P Z P L V ( J C ( J C ( G.F K J K Z P L H ( G.V ( G.V ( J V K G.K Z L ( Z ( G.Z U S y &.<.4.3.Y.@.U.2.*.T.{ I.T.z U V ",
"Q Q W ! Q ! ~ T Q K T b.L T v.P T Q ~ ! T ! ( Q Q ( T b.L T v.P Q Q ~ ! T ! ~ T Q ( T Q P ! j u + [ (.(.:.@.>.Y.@.$.+ &.#.B v.K ",
"H H G.P Z G.G.Z L J A P G.Z L J H H J P Z L G.Z P G.V L G.Z P G.H H G.P Z L H A ( G.Z H.G.Z q u $.[ $ + *.P.@ @ % $.K.<.{ z L J ",
"b.P b.b.( b.b.! ! b.v.( b.b.L b.b.P b.b.( v.b.R ! b.v.K b.b.K b.b.L b.b.( v.b.! ! b.Q ~ b.Q S 8 i [   3 * @.@ 2 . #.* @.* z P b."
};
