/* XPM */
static char *result[] = {
/* columns rows colors chars-per-pixel */
"64 64 234 2 ",
"   c #0E5D39",
".  c #13543E",
"X  c #11593C",
"o  c #04742E",
"O  c #007C2B",
"+  c #0A7C2E",
"@  c #0B6436",
"#  c #076E31",
"$  c #096B34",
"%  c #0D6139",
"&  c #0B6B39",
"*  c #057030",
"=  c #0D7B34",
"-  c #067938",
";  c #127637",
":  c #2A703A",
">  c #2E1B5B",
",  c #1E3D4A",
"<  c #1F3D52",
"1  c #22344E",
"2  c #21394D",
"3  c #292456",
"4  c #262B53",
"5  c #2B2158",
"6  c #282957",
"7  c #233251",
"8  c #253956",
"9  c #332E58",
"0  c #293B67",
"q  c #4E3A60",
"w  c #1A4446",
"e  c #164D42",
"r  c #194944",
"t  c #1B4449",
"y  c #155141",
"u  c #135845",
"i  c #185156",
"p  c #275754",
"a  c #294C54",
"s  c #0D6947",
"d  c #156445",
"f  c #067947",
"g  c #177E44",
"h  c #077955",
"j  c #156A53",
"k  c #2A7753",
"l  c #3A7E5B",
"z  c #316F51",
"x  c #1B546B",
"c  c #3C5C62",
"v  c #304A70",
"b  c #117668",
"n  c #0D746E",
"m  c #2D6D73",
"M  c #577452",
"N  c #6D7552",
"B  c #467B66",
"V  c #557F72",
"C  c #7C6B67",
"Z  c #5D4D63",
"A  c #885D5D",
"S  c #947256",
"D  c #B2675E",
"F  c #AE5C64",
"G  c #AA5C6C",
"H  c #A3576E",
"J  c #A65C76",
"K  c #966A6B",
"L  c #BB6B6C",
"P  c #B76567",
"I  c #BC726F",
"U  c #AD6475",
"Y  c #AC657D",
"T  c #BC6D75",
"R  c #B46A7B",
"E  c #B46877",
"W  c #BD7076",
"Q  c #BC747B",
"!  c #A66F69",
"~  c #965A69",
"^  c #D87A5E",
"/  c #CA7D5E",
"(  c #CE776A",
")  c #C6776C",
"_  c #DA7E62",
"`  c #D27968",
"'  c #C67473",
"]  c #CB7C73",
"[  c #C47774",
"{  c #008233",
"}  c #008539",
"|  c #00893E",
" . c #0B833D",
".. c #00802E",
"X. c #008D44",
"o. c #058647",
"O. c #00914A",
"+. c #09914D",
"@. c #058957",
"#. c #009653",
"$. c #009C5C",
"%. c #049559",
"&. c #148B53",
"*. c #31855A",
"=. c #058B67",
"-. c #009E61",
";. c #059867",
":. c #069875",
">. c #169571",
",. c #398467",
"<. c #2E8D72",
"1. c #00A063",
"2. c #02A56D",
"3. c #02A875",
"4. c #00B17D",
"5. c #48836C",
"6. c #728572",
"7. c #538550",
"8. c #AE8563",
"9. c #DD8265",
"0. c #CC8373",
"q. c #C8837B",
"w. c #D38C7A",
"e. c #CE9079",
"r. c #E98961",
"t. c #E28564",
"y. c #E89771",
"u. c #E59D76",
"i. c #E99C73",
"p. c #E19A78",
"a. c #E9A074",
"s. c #603A82",
"d. c #1F5291",
"f. c #385682",
"g. c #264F83",
"h. c #0E758D",
"j. c #39708F",
"k. c #1A6CAC",
"l. c #2D64A9",
"z. c #4E7C89",
"x. c #667897",
"c. c #1C7ACC",
"v. c #A96381",
"b. c #AF7081",
"n. c #B57780",
"m. c #9B7BB0",
"M. c #0E8D8C",
"N. c #32918E",
"B. c #03A386",
"V. c #00B687",
"C. c #00BC90",
"Z. c #0EA88D",
"A. c #2DAE90",
"S. c #3696A2",
"D. c #10B1B3",
"F. c #2EADAA",
"G. c #0E90AA",
"H. c #4F8989",
"J. c #748592",
"K. c #4688AD",
"L. c #4395A9",
"P. c #5193B8",
"I. c #6392A6",
"U. c #45ADB5",
"Y. c #00C39B",
"T. c #3EC3B3",
"R. c #41C4B8",
"E. c #178AD4",
"W. c #1591CE",
"Q. c #288CD4",
"!. c #31AED5",
"~. c #179CFF",
"^. c #1C9BFF",
"/. c #1795F2",
"(. c #1792EA",
"). c #239BFF",
"_. c #2B9BFF",
"`. c #339AFF",
"'. c #3B9AFF",
"]. c #1DA4FF",
"[. c #27A3FD",
"{. c #37A5FB",
"}. c #30AFF6",
"|. c #4BAEC4",
" X c #469DFC",
".X c #5C9AEF",
"XX c #7C9AE0",
"oX c #6896E8",
"OX c #4CA4F7",
"+X c #58A9FB",
"@X c #4DB0FD",
"#X c #71B3F9",
"$X c #5089C0",
"%X c #3BC8FF",
"&X c #2FDCCD",
"*X c #51C4D5",
"=X c #4FD8D8",
"-X c #49DAFF",
";X c #53DAE3",
":X c #72C2FD",
">X c #59E9F7",
",X c #5FF4FF",
"<X c #47E6E3",
"1X c #64EFF9",
"2X c #8F8297",
"3X c #8D89A9",
"4X c #9995BE",
"5X c #89A5E5",
"6X c #98AAE9",
"7X c #93B4EC",
"8X c #A5AEED",
"9X c #AAACEF",
"0X c #A6B6ED",
"qX c #B7BDF5",
"wX c #A9B8F2",
"eX c #A59AD9",
"rX c #CEBDFB",
"tX c #89C8FC",
"yX c #98C6F2",
"uX c #AAC7EE",
"iX c #BAC6F4",
"pX c #B7D8F2",
"aX c #ABD2F3",
"sX c #BDE7F4",
"dX c #C5CAF7",
"fX c #C5DDF6",
"gX c #C9D6F8",
"hX c #D4CEFB",
"jX c #C3E4F5",
"kX c #C4EBF5",
"lX c #CBEDF6",
"zX c #C9E4F7",
"xX c #D2EBF8",
"cX c #D5F2F7",
/* pixels */
"'.'.'.'.'.'.'.'.'.'.'.'.'.'.'.'.'.'.'.'.'.'.'.'.'.'.'.'.'.'.'.'.'.'.'.'.'.'.'.'.'.'.'.'.'.'.'.'.'.'.'.'.'.'.'.'.'.'.'.'.'.'.'.'.",
"'.'.'.'.'.'.'.'.'.'.'.'.'.'.'.'.'.'.'.'.'.'.'.'.'.'.'.'.'.'.'.'.'.'.'.'.'.'.'.'.'.'.'.'.'.'.'.'.'.'.'.'.'.'.'.'.'.'.'.'.'.'.'.'.",
"'.'.'.'.'.'.'.'.'.'.'.'.'.'.'.'.'.'.'.'.'.'.'.'.'.'.'.'.'.'.'.'.'.'.'.'.'.'.'.'.'.'.'.'.'.'.'.'.'.'.'.'.'.'.'.'.'.'.'.'.'.'.'.'.",
"'.'.'.'.'.'.'.'.'.'.'.'.'.'.'.'.'.'.'.'.'.'.'.'.'.'.'.'.'.'.'.'.'.'.'.'.'.'.'.'.'.'.'.'.'.'.'.'.'.'.'.'.'.'.'.'.'.'.'.'.'.'.'.'.",
"'.'.'.'.'.'.'.'.'.'.'.'.'.'.'.'.'.'.'.'.'.'.'.{.'.'.'.'.'.'.'.'.'.'.'.'.'.'.'.'.'.'.'.'.'.'.'.'.'.'.'.'.'.'.'.'.'.'.'.'.'.'.'.'.",
"'.'.'.'.'.'.'.'.'.'.'.'.'.'.'.'.'.'.'.'.'.'.'.OX5XqXcXsX'.'.'.'.'.'.'.'.'.'.'.'.'.'.'.'.'.'.'.'.'.'.'.'.'.'.'.'.'.'.'.'.'.'.'.'.",
"'.'.'.'.'.'.'.'.'.'.'.'.'.'.'.tXtX+X'.'.'.'.'.XXdXjXlXlXyXtX#X'.'.'.'.'.'.'.'.'.'.'.'.'.'.'.'.'.'.'.'.'.'.'.'.'.'.'.'.'.'.'.'.'.",
"'.'.'.'.'.'.'.'.'.'.'.'. X+XwXlXcXcXtX'.'.OX5X6XqXkXzXuXiXlXcXtX'.'.'.'.'.'.'.'.'.'.'.'.'.'.'.'.'.'.'.'.'.'.'.'.'.'.'.'.'.'.'.'.",
"'.'.'.'.'.'.'.'.'.'.'. XaX9XdXkXzXzXcX X X5XdXfXpXkXqXjXkXkXlXlX#X'.'.'.+X+X+X`.`.{._._.`.`._._.`.`._.'.'.'.'.'.'.'.'.'.'.'.'.'.",
"_._.'.'.'.'.'.'.'.'.+XiXpX6XrXiXwXfXcXtXoX9XhXsXcXpXdXsX7XuXkXlX+X[.).OXgXlXcX#X:X#X^.).^.).).)._.^.).)._.)._._.)._.).).).)._._.",
"^.).)._._.'.'.`..X7XiXsXkXxX9XdXlXsXcX`.`.oX5XdXzXpXiX0XcXlXsXlX@X#XtXwXfXjXzXuXpXcX:X).^.).~.).^.~.).).^.).~.^.).).^.).).).).^.",
"^.)._.~._.).[.XXgXdXiXsXfXuXhXzXgXuXqXyX@XXX7XrXfXpXuXdXlXkXkXuXyXzXuXgXjXiX0XkXsXsXaXlXkX{.^.^._.^.~.~.).~.~.).~.).~.~.).~.).).",
").^.^.).^.^._.8XjXuXhXiXrXgXdXhXiXdXfXzXuXlXpX6XqX6XpXuXkXcXgXdXsXkXaXdXdXaXaXpXkXpXiXzXlXsX{.~.~.~.~.~.~.~.~.~.~.).^.~.~.~.~.~.",
"~.~.).).).~.OX8XhXpX0XrXgXjXpXiX8XfXjX0X7XgXkX6X5XpXjXkXlX5XdXgXjXkXhX8X8XfXjXjXzXwXrXfXjXzX+X).~.~.~.~.~.~.~.~.~.~.~.~.~.~.~.~.",
"~.~.~.~.~.~.{.XX8X8X6X5X8X8X8X6XXX6X8X5XXX0X8X6XXX6X8X8X6XXX5X8X8X8X6XXXXX6X8X8X9X6X5X8X8X0X[.~.~.~.~.~.~.~.~.~.~.~.~.~.~.~.~.~.",
"~.~.~.~.~.~.~.~.~.~.~.~.~.~.~.~.~.~.~.~.]./.~.~.~.~.~./.~.~.~.~.~.~.~.~.~.~.~.~.~.~.~.~.~.~.~.~.~.~.~.~.~.~.~.~.~.~.~.~.~.~.~.~.",
"~.~.~.~.~.~.~.~.~.~.~.~.~.~.~.~.~.~.~.~.~.~.~.~.~.~.~.~.~.~.~.~.~.~.~.~.~.~.~.~.~.~.~.~.~.~.~.~.~.~.~.~.~.~.~.~.~.~.~.~.~.~.~.~.",
"~.~.~.~.~.~.~.~.~.~.~.~.~.~.~.~.~.~.~.~.~.~.~.~.~.~.~.~.~.~.~.~.~.~.~.~.~.~.~.~.~.~.~.~.~.~.~.~.~.~.~.~.~.~.~.~.~.~.~.~.~.~.~.~.",
"~.~.~.~.~.~.~.~.~.~.~.~.~.~.~.~.~.~.~.~.~.~.~.~.~.~.~.~.~.~.~.~.~.~.~.~.~.~.~.~.~.~.~.~.~.~.~.~.~.~.~.~.~.~.~.~.~.~.~.~.~.~.~.~.",
"~.~.~.~.~.~.~.~.~.~.~.~.~.~.~.~.~.~.~.~.~.~.~.~.~.~.~.~.~.~.~.~.~.~.~.~.~.~.~.~.~.~.~.~.~.~.~.~.~.~.~.~.~.~.~.~.~.~.~.~.~.~.~.~.",
"~.~.~.~.~.~.~.~.~.~.~.~.~.~.~.~.~.~.~.~.~.~.~.~.~.~.~.~.~.~.~.~.~.~.~.~.~.~.~.~.~.~.~.~.~.~.~.~.~.~.~.~.~.~.~.~.~.~.~.~.~.~.~.~.",
"~.~.~.~.~.~.~.~.~.~.~.~.~.~.~.~.~.~.~.~.~.~.~.~.~.~.~.~.~.~.~.~.~.~.~.~.].].~.~.~.~.~.~.~.~.~.~.~.~.~.~.~.~.~.~.~.~.~.~.~.~.~.~.",
"~.~.~.~.~.~.~.~.~.~.~.~.~.~.~.~.~.~.~.~.~.~.~.~.~.~.~.~.~.~.~.~.~.~.}.#XtX:X^.~.~.~.~.~.~.~.~.~.~.~.~.~.~.~.~.~.~.~.~.~.~.~.~.~.",
"~.~.~.~.~.~.~.~.~.~.~.~.~.~.~.~.~.~.~.~.~.~.~.~.~.~.~.~.~.~.~.~.~.[.6XfXkXlXtX~.~.~.~.~.~.~.~.~.~.~.~.~.~.~.~.~.~.~.~.~.~.~.~.~.",
"~.~.~.~.~.~.~.~.~.~.~.~.~.~.~.~.~.~.~.~.~.~.~.~.~.~.~.~.~.~.~.[.aXzX6XjXfXjXlX{.~.~.~.~.~.~.~.~.~.~.~.~.~.~.~.~.~.~.~.~.~.~.~.~.",
"~.~.~.~.~.~.~.~.~.~.~.~.~.~.~.~.~.~.~.~.~.~.~.~.~.~.~.~./.}.tXyXjXkXjX8XwXgXyX).~.~.~.~.~.~.~.~.~.~.~.~.~.~.~.~.~.~.~.~.~.~.~.~.",
"~.~.~.~.~.~.~.~.~.~.~.~.~.~.~.~.~.~.~.~.~.~.~.~.~.~.~.~.).0XjXpXiXfXpX6XgXkXkXlX{.D.W.5XP.E.W.M.M.~.^.M.W.~.~.~.~.~.~.~.~.~.~.~.",
"~.~.~.~.~.~.~.~.~.~.~.~.~.~.~.~.~.~.~.~.~.~.~.~.~.~.~.~.+XpXgXkX5XjXuX9XjXuXI.= 4.3. .&.f 2 i #.O f x.2X* & ~.~.~.~.~.~.~.~.~.~.",
"~.~.~.~.~.~.~.~.~.~.~.~.~.~.~.~.~.~.~.~.~.~.~.~.~.~.~.[.iXsXlXuXgXfXzXuXdXc y | -.;.I.- @.h.$.1.-.V.| { } B c.~.~.~.~.~.~.~.~.~.",
"~.~.~.~.~.~.~.~.~.~.~.~.~.~.~.~.~.~.~.~.~.~.~.~.~.~.).#X4X3XH.dXqXgXgXfX3Xt { 1.2.x.4.+   * =.B.C.X.$.4.%.B v ~.~.~.~.~.~.~.~.~.",
"~.~.~.~.~.~.~.~.~.~.~.~.~.~.~.~.~.~.~.~.~.~.~.~.~.~.[.P.O.>.3.4.N.OXOXOXl.X f h O O O . e O 1.| { 1.Z.:.$ t eXz.~.~.~.~.~.~.~.~.",
"~.~.~.~.~.~.~.~.~.~.~.~.~.~.~.~.~.~.~.~.~.~.~.~.~.~.c.i ..5.&.O.$.G.^.^.E.i O { .     3 . @...O.| <.S.n X . * o oX~.~.~.~.~.~.~.",
"~.~.~.~.~.~.~.~.~.~.~.~.~.~.~.~.~.~.~.~.~.~.~.~.~.~.k.> O O | $.Y.f ~.h h.0 t O   3 3 > e - O O * p &.O . % h h.<.Z.W.~.~.~.~.~.",
"~.~.~.~.~.~.~.~.~.~.~.~.~.~.~.~.~.~.~.~.~.~.~.~.~.~.k.6 O O O O $ r .   @ w w 2 8 b V.:.7   % r 3 . O o e z O B.Y.1.o.W.~.~.~.~.",
"~.~.~.~.~.~.~.~.E.~.(.E.~.E.Q.W./.~.~.~.~.~.~.~.~.~.~.6   O o e e k l X . # * e @.1.| O X.7 > , 4 % X , 1 z.;.:.3.=.n n ~.~.~.~.",
"~.~.~.~.~.~.].s l z.@.#.i k 5.3.:.n E.~.~.~.~.].~.~.].k.4 , 1 3 @ J.>.4.$.{ { V a # O # < u @ @ d 7 4 X 1 1 o.%.:.-   x ~.~.~.~.",
"~.~.~.~.~.~.k.B -.X.4.3.@.f >.<.%.o.x ~.~.~.~.Q.E.~.~./.k.k.w O O O.O.C.#.$.$.O O t y . c s.O O 2.:.G.i t 2 1 r # e 4 d.~.~.~.~.",
"].].].[.%X}.x.. ;.B.O.@.X.y &  .o.h r (.].E.:.<.@.E.~.g.> > # O O O...X.X.X.O O 2X6.@   *.V O O O O 4.4.#.;., 1 < 4 3 %X%X%X].~.",
"-X-X%X-X!.5.- e o.H. .{ X.e 4 .   - x Q.}.-.#.>.O 8 /.0 6 3 o = + O o O | | o o 3.G.4.{ ..2X| J.M.f f { { X.O , > v |.>X>X-X%X%X",
",X-X,XT.4.B.f u o O 1   # , b x r e p * m j | O O 3 W.h.x . O.5.k X 2 @.3.3., i Y.#.O.O...4.C.=.>.z.k #.#.1.# o 5 > U.,X,X,X,X,X",
",X,X,Xs @.:.-.c , X 2 2 3 f O #.j $ $ d l d t * s g.j O o # V.#...e > f O O @ p #.+ 2.V.% o.=.o.. ..-.#.%.O # e > f.;X,X,X,X,X,X",
",X,X,X2   h X 6 y d.=.O % a # . z +.X.C.-.*.X 0 f.|.r O O O { } 2X, $ r O O 0 m.4X+ { & e - O O @ u } - - h.h.0 0 ;X=X,X,X,X,X,X",
",X,X,XL.7 , , $.#.1.{ - l k u ,.B O X.X.O | O . > j.f.@   O.$.X.1., 1 y O   6 & O   X * e * | =.y j } i x e 0 *X<X&XC.T.,X,X,X,X",
",X,X,X,X0 2 o O.{ l M.<.A.+ O.:.3.e $.O.X o *.& v S.*X2 2 } O.$.| @ > > 7 5 5 u o , * t * } h.n $ 4 @ u j.F.N.g @.Y.$.;.F.,X,X,X",
",X,X,X,Xf.4 s o.#.O.@ f #.X V...>.t O o.4 d X.-.@ o I.U.6 u O O O j S.N.> 9 > > 1 X > 3 o $ o @ r t e > w X w 1.2.O 3XJ. .;X,X,X",
",X,X,X<X>XL.d.h h X.e O O . O + x.Z o & @ Z O.O z } *.2.o.r e e f x i 5 6 S.f.> w 2 > > 4 . # 4 , > > > 1 3 w O O O.;.-.| L.,X,X",
",X,X=X$.Y.A.N.K.i   w M.@.@ . r = 1 6 7 > +.X.>.c #.V.| V.n e X t B :.e 6 0 F.8 > 3   3 > 4 1 3 > > y . 3   . @ O { X.| ..v ,X,X",
",X,Xo.J.O 1.y r > 4 e . @ @ > w 2 > v v K.&.- k c @ M.;.X.o.- 2 * * f O j.a , =.3 3 X % > > > 3 4 6 , e 6 6 w @ 3 1   . 9 ;X,X,X",
",XK.O $.X.O . e 7 , > 4 e > v f.> P.j.v >XN.N.n $   X.c $ O s 1 2 1 o 7 N..   > > 6 . 4 > > 3 w O | c o O @.j 7 4 e 4 j.*X,X,X,X",
",X,Xf.r . 2 c K.|.S.K.f.> > U.1 v m U.,XT.f V.:.l r # $ 7 t y f 3.n , X e 4 . $ 4 > > > > X c c X e ; - $ & % o.$ a v ,X,X,X,X,X",
",X,X,X*XK.>XS.A.A.>X,X,Xm > 5 > 1 |.,X,XS.@ =.%.j 1 , < u X u X o % l } O.b 4 6 . 2 6 > 4 . B + f N.,.O X.{ O = O r > L.,X,X,X,X",
",X,X,X,X,X,X,X,X,X,X,X,X|.1 > m >X,X,X,X*X4   r t u M.=.| + x.. . z O #.X.2.> r $ %.% > 4 3 &.+ $.%.3.t -.%.w & *.f a N.,X,X,X,X",
"1X1X1X1X1X1X>X1X1X1X1XL.a > c ;X1X1X1X1X,Xz.5 t o.X.%.&.5. .5.O $.P.; = O.+ r 9 b o.- u > > > 5 b  .6.c O & t z +.+.= + U.1X1X1X",
"i.y.e.p.y.p.e.y.u.w.i.a.q.a.i.w.a.u.e.u.y.u.w.y.u.w.y.a.0.a.a.q.i.y.w.u.y.p.w.i.a.w.i.! > > > > 4 8.w.a.y.p.w.p.i.w.y.a.] i.y.w.",
") ) Q I ] q.U q.0.U 0.) Y [ ] b.) ) Q W ' ] U q.0.U 0.) Y 0.) R ] ) [ W ] q.U 0.0.U 0.C > > > > > Z W I ] q.U 0.] U q.) Y ] ) b.",
"w.R L 0.Q F 0.q.G ] e.J ) w.J L e.R P 0.n.F ] q.G ] e.J ) w.J L 0.b.L 0.n.F ] q.H ( w.~ Z > > > > q P 0.n.F ] q.G ] e.H ' e.H ' ",
"P v.] P R [ L T W L ) U ' P Y ] P Y ] P Y ] L W T P ' R ] L Y ] P Y ] P Y ] L T W T ' E Z > > > 5 9 ! P R [ L T W L ' E ' ' Y ] ",
"P ( T F ` ) H ` ( H ( ( J ) ( Y D ( W F ` ' H ` ( H ) ` J P ( R D ` T F ( ' H ( ` H ) S 9 > > > > 9 Z F ` ' H ( ) H ( ` J P ( Y ",
"' H v.W G R Y U Y Y T G v.n.G v.W H v.' G R Y L E Y T J v.W G v.T G v.T G b.Y P E U D Z w > > > > > Z L A C C F U Y ' J v.T G v.",
"t.E _ 9.W _ 9.) ( ` 7.A.5.7.C b.6.K 9.8.! ` 6.3X&.! _ T _ t.R ^ t.R 9.t.' 9._ ' ( _ A > > > > 2 5 1 + 7.: O + : N _ _ T _ t.E _ ",
"' J U T E L G N M H.D.#.L.F.%.&.B.<.F.D.O.&.*.M.<.3.6.Y F W Y G W v.P T J E U E G 9 > > > > 4 .   # O 1   O O O o N ' E H ' v.G ",
"_ _ ' ` t.! M H.5. .M.1.$.| 2.+.%.Z.:.@.:.*.D.-.>.D.A.6.K / t.E _ _ ' ` _ ` ' ^ : > > > > 4 4 1 + O . 4 @ 4 4 . @ + A _ E ^ t.E ",
"E U Y U K *.N.;.| #.-.O # & <.F.:.- O @ O.o.@   k >.@.o C H R v.U J Y U U R J J q 5 > 3 X o @ 2 o @ 2 > , 3 4 w .   : U Y J E v.",
"r.E r.r.S = @.o.f & * y 3 p b @ s - O.# 4 # y , y %.#.| S ) T r.r.T r.r.T t.9 4 > > 5 @ o O . # 1 > > 1 o 4 3 1 , # # M r.r.E r."
};
